<svg width="260" height="300" viewBox="0 0 260 300" fill="none" xmlns="http://www.w3.org/2000/svg">
<mask id="mask0_1119_328" style="mask-type:luminance" maskUnits="userSpaceOnUse" x="-35" y="70" width="290" height="160">
<path d="M-34.8187 70.7469H254.981V229.144H-34.8187V70.7469Z" fill="white"/>
</mask>
<g mask="url(#mask0_1119_328)">
<path d="M-28.5406 73.9469C-28.5406 74.3406 -28.6187 74.7188 -28.7687 75.0844C-28.9187 75.4469 -29.1343 75.7688 -29.4124 76.05C-29.6937 76.3281 -30.0156 76.5406 -30.3781 76.6938C-30.7437 76.8438 -31.1218 76.9188 -31.5156 76.9188C-31.9124 76.9188 -32.2906 76.8406 -32.6562 76.6906C-33.0187 76.5406 -33.3406 76.325 -33.6187 76.0438C-33.8968 75.7656 -34.1124 75.4438 -34.2624 75.0781C-34.4124 74.7156 -34.4874 74.3344 -34.4874 73.9406C-34.4874 73.5469 -34.4093 73.1656 -34.2593 72.8031C-34.1062 72.4375 -33.8906 72.1188 -33.6124 71.8406C-33.3312 71.5625 -33.0093 71.3469 -32.6468 71.1969C-32.2812 71.0469 -31.8999 70.9719 -31.5062 70.9719C-31.1124 70.975 -30.7343 71.05 -30.3718 71.2031C-30.0093 71.3531 -29.6874 71.5688 -29.4093 71.8469C-29.1312 72.125 -28.9187 72.4469 -28.7687 72.8094C-28.6156 73.175 -28.5406 73.5531 -28.5406 73.9469ZM-0.0655556 70.9719C-0.459305 70.9719 -0.837429 71.0469 -1.20305 71.1969C-1.56868 71.3469 -1.89055 71.5625 -2.16868 71.8406C-2.44993 72.1188 -2.66555 72.4375 -2.81555 72.8031C-2.96868 73.1656 -3.04368 73.5469 -3.04368 73.9406C-3.0468 74.3344 -2.9718 74.7156 -2.81868 75.0781C-2.66868 75.4438 -2.45618 75.7656 -2.17805 76.0438C-1.8968 76.325 -1.57805 76.5406 -1.21243 76.6906C-0.84993 76.8406 -0.468678 76.9188 -0.0749283 76.9188C0.318821 76.9188 0.700069 76.8438 1.06257 76.6938C1.4282 76.5406 1.75007 76.3281 2.02819 76.05C2.30632 75.7688 2.52195 75.4469 2.67507 75.0844C2.82507 74.7188 2.90007 74.3406 2.90007 73.9469C2.90007 73.5531 2.82507 73.175 2.67507 72.8094C2.52507 72.4469 2.30945 72.125 2.03132 71.8469C1.7532 71.5688 1.43444 71.3531 1.07195 71.2031C0.706322 71.05 0.328197 70.975 -0.0655556 70.9719ZM31.3688 70.9719C30.9751 70.9719 30.5969 71.05 30.2313 71.2C29.8688 71.35 29.5469 71.5656 29.2688 71.8438C28.9907 72.1219 28.7751 72.4438 28.6251 72.8094C28.4719 73.1719 28.3969 73.5531 28.3969 73.9469C28.3969 74.3406 28.4719 74.7188 28.6251 75.0844C28.7751 75.4469 28.9907 75.7688 29.2688 76.0469C29.5469 76.325 29.8688 76.5406 30.2313 76.6906C30.5969 76.8438 30.9751 76.9188 31.3688 76.9188C31.7657 76.9188 32.1438 76.8438 32.5063 76.6906C32.8719 76.5406 33.1938 76.325 33.4719 76.0469C33.7501 75.7688 33.9657 75.4469 34.1157 75.0844C34.2657 74.7188 34.3438 74.3406 34.3438 73.9469C34.3438 73.5531 34.2657 73.1719 34.1157 72.8094C33.9657 72.4438 33.7501 72.1219 33.4719 71.8438C33.1938 71.5656 32.8719 71.35 32.5063 71.2C32.1438 71.05 31.7657 70.9719 31.3688 70.9719ZM62.8282 70.9719C62.4344 70.9719 62.0532 71.05 61.6907 71.2C61.3251 71.35 61.0032 71.5656 60.7251 71.8438C60.4469 72.1219 60.2313 72.4438 60.0813 72.8094C59.9313 73.1719 59.8563 73.5531 59.8563 73.9469C59.8563 74.3406 59.9313 74.7188 60.0813 75.0844C60.2313 75.4469 60.4469 75.7688 60.7251 76.0469C61.0032 76.325 61.3251 76.5406 61.6907 76.6906C62.0532 76.8438 62.4344 76.9188 62.8282 76.9188C63.2219 76.9188 63.6001 76.8438 63.9657 76.6906C64.3282 76.5406 64.6501 76.325 64.9282 76.0469C65.2063 75.7688 65.4219 75.4469 65.5719 75.0844C65.7251 74.7188 65.8001 74.3406 65.8001 73.9469C65.8001 73.5531 65.7251 73.1719 65.5719 72.8094C65.4219 72.4438 65.2063 72.1219 64.9282 71.8438C64.6501 71.5656 64.3282 71.35 63.9657 71.2C63.6001 71.05 63.2219 70.9719 62.8282 70.9719ZM94.2688 70.9719C93.8751 70.9719 93.4969 71.05 93.1313 71.2C92.7688 71.35 92.4469 71.5656 92.1688 71.8438C91.8876 72.1219 91.6751 72.4438 91.5219 72.8094C91.3719 73.1719 91.2969 73.5531 91.2969 73.9469C91.2969 74.3406 91.3719 74.7188 91.5219 75.0844C91.6751 75.4469 91.8876 75.7688 92.1688 76.0469C92.4469 76.325 92.7688 76.5406 93.1313 76.6906C93.4969 76.8438 93.8751 76.9188 94.2688 76.9188C94.6626 76.9188 95.0438 76.8438 95.4063 76.6906C95.7719 76.5406 96.0938 76.325 96.3719 76.0469C96.6501 75.7688 96.8657 75.4469 97.0157 75.0844C97.1657 74.7188 97.2407 74.3406 97.2407 73.9469C97.2407 73.55 97.1657 73.1688 97.0157 72.8063C96.8626 72.4406 96.6469 72.1188 96.3657 71.8375C96.0844 71.5594 95.7626 71.3438 95.3969 71.1938C95.0313 71.0469 94.6501 70.9719 94.2532 70.9719H94.2688ZM125.697 70.9719C125.303 70.9719 124.922 71.0469 124.556 71.1969C124.194 71.3469 123.872 71.5625 123.591 71.8406C123.313 72.1188 123.097 72.4375 122.944 72.8031C122.794 73.1656 122.716 73.5469 122.716 73.9406C122.716 74.3344 122.791 74.7156 122.941 75.0781C123.091 75.4438 123.306 75.7656 123.584 76.0438C123.863 76.325 124.184 76.5406 124.547 76.6906C124.913 76.8406 125.291 76.9188 125.688 76.9188C126.081 76.9188 126.459 76.8438 126.825 76.6938C127.188 76.5406 127.509 76.3281 127.791 76.05C128.069 75.7688 128.284 75.4469 128.434 75.0844C128.584 74.7188 128.663 74.3406 128.663 73.9469C128.663 73.5531 128.588 73.175 128.434 72.8094C128.284 72.4469 128.072 72.125 127.794 71.8469C127.516 71.5688 127.194 71.3531 126.831 71.2031C126.469 71.05 126.091 70.975 125.697 70.9719ZM157.138 70.9719C156.744 70.975 156.366 71.0531 156.003 71.2063C155.641 71.3594 155.322 71.5781 155.047 71.8563C154.769 72.1375 154.556 72.4594 154.409 72.825C154.259 73.1875 154.188 73.5688 154.188 73.9594C154.191 74.3531 154.269 74.7313 154.419 75.0969C154.572 75.4594 154.788 75.7781 155.069 76.0563C155.347 76.3313 155.669 76.5469 156.031 76.6969C156.397 76.8438 156.775 76.9188 157.169 76.9188C157.563 76.9156 157.941 76.8406 158.303 76.6906C158.669 76.5375 158.988 76.325 159.266 76.0438C159.544 75.7656 159.756 75.4438 159.909 75.0813C160.059 74.7188 160.134 74.3406 160.134 73.9469C160.134 73.55 160.056 73.1688 159.906 72.8031C159.753 72.4375 159.538 72.1156 159.256 71.8344C158.975 71.5563 158.65 71.3438 158.284 71.1938C157.916 71.0438 157.534 70.9719 157.138 70.9719ZM188.572 70.9719C188.178 70.9719 187.8 71.05 187.434 71.2C187.072 71.35 186.75 71.5656 186.472 71.8438C186.194 72.1219 185.978 72.4438 185.828 72.8094C185.675 73.1719 185.6 73.5531 185.6 73.9469C185.6 74.3406 185.675 74.7188 185.828 75.0844C185.978 75.4469 186.194 75.7688 186.472 76.0469C186.75 76.325 187.072 76.5406 187.434 76.6906C187.8 76.8438 188.178 76.9188 188.572 76.9188C188.969 76.9188 189.347 76.8438 189.709 76.6906C190.075 76.5406 190.397 76.325 190.675 76.0469C190.953 75.7688 191.169 75.4469 191.319 75.0844C191.469 74.7188 191.547 74.3406 191.547 73.9469C191.547 73.5531 191.469 73.1719 191.319 72.8094C191.169 72.4438 190.953 72.1219 190.675 71.8438C190.397 71.5656 190.075 71.35 189.709 71.2C189.347 71.05 188.969 70.9719 188.572 70.9719ZM220.016 70.9719C219.622 70.9719 219.241 71.05 218.878 71.2C218.513 71.35 218.191 71.5656 217.913 71.8438C217.634 72.1219 217.419 72.4438 217.269 72.8094C217.119 73.1719 217.044 73.5531 217.044 73.9469C217.044 74.3406 217.119 74.7188 217.269 75.0844C217.419 75.4469 217.634 75.7688 217.913 76.0469C218.191 76.325 218.513 76.5406 218.878 76.6906C219.241 76.8438 219.622 76.9188 220.016 76.9188C220.409 76.9188 220.788 76.8438 221.153 76.6906C221.516 76.5406 221.838 76.325 222.116 76.0469C222.397 75.7688 222.609 75.4469 222.763 75.0844C222.913 74.7188 222.988 74.3406 222.988 73.9469C222.988 73.5531 222.913 73.1719 222.763 72.8094C222.609 72.4438 222.397 72.1219 222.116 71.8438C221.838 71.5656 221.516 71.35 221.153 71.2C220.788 71.05 220.409 70.9719 220.016 70.9719ZM251.456 76.9094C251.853 76.9094 252.231 76.8344 252.597 76.6844C252.959 76.5344 253.281 76.3188 253.559 76.0406C253.838 75.7594 254.053 75.4375 254.203 75.075C254.356 74.7094 254.431 74.3313 254.431 73.9344C254.428 73.5406 254.353 73.1625 254.203 72.7969C254.05 72.4344 253.834 72.1125 253.556 71.8344C253.278 71.5563 252.956 71.3406 252.591 71.1906C252.225 71.0406 251.847 70.9656 251.453 70.9656C251.059 70.9656 250.678 71.0438 250.316 71.1938C249.95 71.3469 249.628 71.5625 249.35 71.8406C249.072 72.1219 248.859 72.4438 248.709 72.8063C248.559 73.1719 248.484 73.55 248.484 73.9469C248.488 74.3406 248.563 74.7188 248.713 75.0813C248.866 75.4438 249.078 75.7656 249.359 76.0438C249.638 76.3219 249.959 76.5344 250.322 76.6844C250.684 76.8344 251.063 76.9094 251.456 76.9094ZM-31.5062 101.381C-31.8999 101.381 -32.2812 101.456 -32.6468 101.606C-33.0093 101.756 -33.3312 101.969 -33.6124 102.247C-33.8906 102.525 -34.1062 102.847 -34.2593 103.213C-34.4093 103.575 -34.4874 103.953 -34.4874 104.35C-34.4874 104.744 -34.4124 105.122 -34.2624 105.488C-34.1124 105.853 -33.8968 106.175 -33.6187 106.453C-33.3406 106.731 -33.0187 106.947 -32.6562 107.1C-32.2906 107.25 -31.9124 107.325 -31.5156 107.325C-31.1218 107.328 -30.7437 107.253 -30.3781 107.1C-30.0156 106.95 -29.6937 106.734 -29.4124 106.456C-29.1343 106.178 -28.9187 105.856 -28.7687 105.491C-28.6187 105.128 -28.5406 104.75 -28.5406 104.353C-28.5406 103.959 -28.6156 103.581 -28.7687 103.219C-28.9187 102.853 -29.1312 102.534 -29.4093 102.256C-29.6874 101.975 -30.0093 101.763 -30.3718 101.609C-30.7343 101.459 -31.1124 101.381 -31.5062 101.381ZM-0.0655556 101.381C-0.459305 101.381 -0.837429 101.456 -1.20305 101.606C-1.56868 101.756 -1.89055 101.969 -2.16868 102.247C-2.44993 102.525 -2.66555 102.847 -2.81555 103.213C-2.96868 103.575 -3.04368 103.953 -3.04368 104.35C-3.0468 104.744 -2.9718 105.122 -2.81868 105.488C-2.66868 105.853 -2.45618 106.175 -2.17805 106.453C-1.8968 106.731 -1.57805 106.947 -1.21243 107.1C-0.84993 107.25 -0.468678 107.325 -0.0749283 107.325C0.318821 107.328 0.700069 107.253 1.06257 107.1C1.4282 106.95 1.75007 106.734 2.02819 106.456C2.30632 106.178 2.52195 105.856 2.67507 105.491C2.82507 105.128 2.90007 104.75 2.90007 104.353C2.90007 103.959 2.82507 103.581 2.67507 103.219C2.52507 102.853 2.30945 102.534 2.03132 102.256C1.7532 101.975 1.43444 101.763 1.07195 101.609C0.706322 101.459 0.328197 101.381 -0.0655556 101.381ZM31.3688 101.381C30.9751 101.381 30.5969 101.456 30.2313 101.609C29.8688 101.759 29.5469 101.975 29.2688 102.253C28.9907 102.531 28.7751 102.853 28.6251 103.216C28.4719 103.581 28.3969 103.959 28.3969 104.353C28.3969 104.747 28.4719 105.128 28.6251 105.491C28.7751 105.856 28.9907 106.178 29.2688 106.456C29.5469 106.734 29.8688 106.95 30.2313 107.1C30.5969 107.25 30.9751 107.325 31.3688 107.325C31.7657 107.325 32.1438 107.25 32.5063 107.1C32.8719 106.95 33.1938 106.734 33.4719 106.456C33.7501 106.178 33.9657 105.856 34.1157 105.491C34.2657 105.128 34.3438 104.747 34.3438 104.353C34.3438 103.959 34.2657 103.581 34.1157 103.216C33.9657 102.853 33.7501 102.531 33.4719 102.253C33.1938 101.975 32.8719 101.759 32.5063 101.609C32.1438 101.456 31.7657 101.381 31.3688 101.381ZM62.8282 101.381C62.4344 101.381 62.0532 101.456 61.6907 101.609C61.3251 101.759 61.0032 101.975 60.7251 102.253C60.4469 102.531 60.2313 102.853 60.0813 103.216C59.9313 103.581 59.8563 103.959 59.8563 104.353C59.8563 104.747 59.9313 105.128 60.0813 105.491C60.2313 105.856 60.4469 106.178 60.7251 106.456C61.0032 106.734 61.3251 106.95 61.6907 107.1C62.0532 107.25 62.4344 107.325 62.8282 107.325C63.2219 107.325 63.6001 107.25 63.9657 107.1C64.3282 106.95 64.6501 106.734 64.9282 106.456C65.2063 106.178 65.4219 105.856 65.5719 105.491C65.7251 105.128 65.8001 104.747 65.8001 104.353C65.8001 103.959 65.7251 103.581 65.5719 103.216C65.4219 102.853 65.2063 102.531 64.9282 102.253C64.6501 101.975 64.3282 101.759 63.9657 101.609C63.6001 101.456 63.2219 101.381 62.8282 101.381ZM94.2688 101.381C93.8751 101.381 93.4969 101.456 93.1313 101.609C92.7688 101.759 92.4469 101.975 92.1688 102.253C91.8876 102.531 91.6751 102.853 91.5219 103.216C91.3719 103.581 91.2969 103.959 91.2969 104.353C91.2969 104.747 91.3719 105.128 91.5219 105.491C91.6751 105.856 91.8876 106.178 92.1688 106.456C92.4469 106.734 92.7688 106.95 93.1313 107.1C93.4969 107.25 93.8751 107.325 94.2688 107.325C94.6626 107.325 95.0438 107.25 95.4063 107.1C95.7719 106.95 96.0938 106.734 96.3719 106.456C96.6501 106.178 96.8657 105.856 97.0157 105.491C97.1657 105.128 97.2407 104.747 97.2407 104.353C97.2407 103.959 97.1657 103.578 97.0157 103.213C96.8626 102.847 96.6469 102.525 96.3657 102.247C96.0844 101.969 95.7626 101.753 95.3969 101.603C95.0313 101.453 94.6501 101.378 94.2532 101.381H94.2688ZM125.713 101.381C125.316 101.381 124.938 101.456 124.572 101.606C124.209 101.756 123.888 101.969 123.606 102.247C123.328 102.525 123.113 102.847 122.959 103.213C122.809 103.575 122.731 103.953 122.731 104.35C122.731 104.744 122.806 105.122 122.956 105.488C123.106 105.853 123.322 106.175 123.6 106.453C123.878 106.731 124.2 106.947 124.563 107.1C124.928 107.25 125.306 107.325 125.7 107.325C126.097 107.328 126.475 107.253 126.841 107.1C127.203 106.95 127.525 106.734 127.806 106.456C128.084 106.178 128.3 105.856 128.45 105.491C128.6 105.128 128.675 104.75 128.675 104.353C128.675 103.959 128.6 103.578 128.45 103.216C128.297 102.85 128.081 102.528 127.803 102.25C127.525 101.972 127.2 101.756 126.838 101.606C126.472 101.456 126.091 101.381 125.697 101.381H125.713ZM157.153 101.381C156.759 101.381 156.381 101.456 156.016 101.606C155.65 101.756 155.328 101.969 155.05 102.247C154.769 102.525 154.553 102.847 154.403 103.213C154.25 103.575 154.175 103.953 154.175 104.35C154.172 104.744 154.247 105.122 154.397 105.488C154.55 105.853 154.763 106.175 155.041 106.453C155.319 106.731 155.641 106.947 156.006 107.1C156.369 107.25 156.75 107.325 157.144 107.325C157.538 107.328 157.919 107.253 158.281 107.1C158.647 106.95 158.969 106.734 159.247 106.456C159.525 106.178 159.741 105.856 159.891 105.491C160.044 105.128 160.119 104.75 160.119 104.353C160.119 103.959 160.044 103.578 159.891 103.216C159.741 102.85 159.525 102.528 159.244 102.25C158.966 101.972 158.644 101.756 158.278 101.606C157.913 101.456 157.534 101.381 157.138 101.381H157.153ZM188.588 101.381C188.194 101.381 187.816 101.456 187.45 101.609C187.088 101.759 186.766 101.975 186.488 102.253C186.206 102.531 185.994 102.853 185.841 103.216C185.691 103.581 185.616 103.959 185.616 104.353C185.616 104.747 185.691 105.128 185.841 105.491C185.994 105.856 186.206 106.178 186.488 106.456C186.766 106.734 187.088 106.95 187.45 107.1C187.816 107.25 188.194 107.325 188.588 107.325C188.981 107.325 189.363 107.25 189.725 107.1C190.091 106.95 190.413 106.734 190.691 106.456C190.969 106.178 191.184 105.856 191.334 105.491C191.484 105.128 191.559 104.747 191.559 104.353C191.559 103.959 191.484 103.578 191.334 103.213C191.181 102.847 190.966 102.525 190.684 102.247C190.403 101.969 190.081 101.753 189.716 101.603C189.35 101.453 188.969 101.378 188.572 101.381H188.588ZM220.031 101.381C219.638 101.381 219.256 101.456 218.894 101.609C218.528 101.759 218.206 101.975 217.928 102.253C217.65 102.531 217.434 102.853 217.284 103.216C217.134 103.581 217.059 103.959 217.059 104.353C217.059 104.747 217.134 105.128 217.284 105.491C217.434 105.856 217.65 106.178 217.928 106.456C218.206 106.734 218.528 106.95 218.894 107.1C219.256 107.25 219.638 107.325 220.031 107.325C220.425 107.325 220.803 107.25 221.169 107.1C221.531 106.95 221.853 106.734 222.131 106.456C222.409 106.178 222.625 105.856 222.775 105.491C222.928 105.128 223.003 104.747 223.003 104.353C223.003 103.959 222.928 103.578 222.775 103.213C222.622 102.847 222.406 102.525 222.128 102.247C221.847 101.969 221.522 101.753 221.156 101.603C220.791 101.453 220.409 101.378 220.016 101.381H220.031ZM251.472 101.381C251.078 101.375 250.697 101.447 250.328 101.591C249.963 101.738 249.638 101.947 249.353 102.225C249.072 102.5 248.85 102.819 248.697 103.181C248.541 103.544 248.459 103.922 248.456 104.319C248.45 104.713 248.522 105.094 248.669 105.459C248.816 105.828 249.028 106.153 249.303 106.434C249.581 106.716 249.9 106.934 250.263 107.088C250.628 107.244 251.006 107.322 251.4 107.325C251.797 107.328 252.178 107.256 252.544 107.109C252.909 106.959 253.234 106.747 253.516 106.469C253.797 106.194 254.013 105.872 254.166 105.509C254.319 105.144 254.397 104.766 254.4 104.369C254.4 103.975 254.328 103.597 254.181 103.234C254.031 102.869 253.822 102.547 253.544 102.269C253.269 101.988 252.95 101.772 252.591 101.619C252.228 101.466 251.85 101.384 251.456 101.381H251.472ZM-31.5062 131.828C-31.8999 131.828 -32.2781 131.9 -32.6437 132.05C-33.0062 132.2 -33.3281 132.413 -33.6093 132.691C-33.8874 132.969 -34.1031 133.288 -34.2562 133.65C-34.4062 134.013 -34.4843 134.391 -34.4874 134.784C-34.4874 135.178 -34.4156 135.556 -34.2656 135.922C-34.1187 136.288 -33.9062 136.609 -33.6281 136.888C-33.3531 137.169 -33.0343 137.384 -32.6718 137.538C-32.3093 137.691 -31.9312 137.769 -31.5374 137.772C-31.1437 137.775 -30.7656 137.703 -30.3999 137.556C-30.0343 137.409 -29.7124 137.197 -29.4312 136.922C-29.1499 136.644 -28.9343 136.325 -28.7781 135.966C-28.6249 135.603 -28.5468 135.225 -28.5406 134.831C-28.5374 134.434 -28.6093 134.053 -28.7593 133.684C-28.9062 133.319 -29.1218 132.994 -29.3999 132.713C-29.6781 132.431 -29.9999 132.213 -30.3656 132.059C-30.7312 131.906 -31.1093 131.828 -31.5062 131.828ZM-0.0655556 131.828C-0.459305 131.828 -0.837429 131.9 -1.20305 132.053C-1.56868 132.203 -1.89055 132.416 -2.1718 132.694C-2.44993 132.975 -2.66555 133.294 -2.81555 133.659C-2.96868 134.025 -3.04368 134.403 -3.04368 134.797C-3.04368 135.194 -2.96868 135.572 -2.81868 135.938C-2.66868 136.3 -2.45305 136.622 -2.17493 136.903C-1.89368 137.181 -1.5718 137.397 -1.2093 137.547C-0.843678 137.697 -0.465553 137.772 -0.0686798 137.772C0.325073 137.772 0.703194 137.697 1.06882 137.544C1.43444 137.394 1.7532 137.178 2.03445 136.9C2.31257 136.619 2.52507 136.297 2.67507 135.931C2.8282 135.566 2.90007 135.188 2.90007 134.794C2.90007 134.4 2.82195 134.022 2.67195 133.659C2.52195 133.297 2.30632 132.975 2.02819 132.7C1.7532 132.422 1.43132 132.206 1.06882 132.056C0.706322 131.906 0.328197 131.828 -0.0655556 131.828ZM31.3688 131.828C30.9782 131.828 30.5969 131.903 30.2344 132.053C29.8719 132.203 29.5501 132.419 29.2719 132.694C28.9938 132.972 28.7782 133.294 28.6282 133.656C28.4751 134.019 28.4001 134.397 28.3969 134.791C28.3969 135.184 28.4688 135.563 28.6188 135.925C28.7688 136.291 28.9813 136.613 29.2563 136.891C29.5344 137.172 29.8532 137.388 30.2157 137.541C30.5782 137.694 30.9563 137.769 31.3501 137.772C31.7438 137.775 32.1219 137.703 32.4876 137.556C32.8501 137.406 33.1751 137.197 33.4532 136.919C33.7344 136.644 33.9501 136.325 34.1063 135.963C34.2594 135.603 34.3376 135.225 34.3438 134.831C34.3469 134.434 34.2751 134.053 34.1251 133.684C33.9751 133.316 33.7626 132.991 33.4813 132.709C33.2032 132.428 32.8813 132.209 32.5157 132.056C32.1469 131.903 31.7657 131.828 31.3688 131.828ZM62.8126 131.828C62.4188 131.828 62.0376 131.903 61.6751 132.053C61.3094 132.206 60.9876 132.422 60.7094 132.7C60.4313 132.978 60.2157 133.3 60.0657 133.666C59.9157 134.028 59.8407 134.409 59.8407 134.803C59.8407 135.197 59.9157 135.578 60.0657 135.941C60.2188 136.306 60.4344 136.625 60.7126 136.906C60.9938 137.184 61.3157 137.397 61.6782 137.547C62.0438 137.7 62.4219 137.772 62.8157 137.772C63.2126 137.772 63.5907 137.697 63.9563 137.544C64.3188 137.394 64.6407 137.178 64.9188 136.897C65.1969 136.619 65.4094 136.297 65.5594 135.931C65.7126 135.566 65.7844 135.188 65.7844 134.794C65.7844 134.4 65.7094 134.022 65.5563 133.663C65.4063 133.3 65.1938 132.978 64.9157 132.7C64.6407 132.425 64.3188 132.209 63.9594 132.056C63.5969 131.906 63.2188 131.831 62.8282 131.828H62.8126ZM94.2532 131.828C93.8594 131.828 93.4813 131.903 93.1157 132.053C92.7532 132.206 92.4313 132.422 92.1501 132.7C91.8719 132.978 91.6594 133.3 91.5063 133.666C91.3563 134.028 91.2813 134.409 91.2813 134.803C91.2813 135.197 91.3594 135.578 91.5094 135.941C91.6594 136.306 91.8751 136.625 92.1563 136.906C92.4344 137.184 92.7563 137.397 93.1219 137.547C93.4844 137.7 93.8657 137.772 94.2594 137.772C94.6532 137.772 95.0344 137.697 95.3969 137.544C95.7626 137.394 96.0813 137.178 96.3594 136.897C96.6376 136.619 96.8532 136.297 97.0032 135.931C97.1532 135.566 97.2282 135.188 97.2282 134.794C97.2251 134.4 97.1501 134.022 96.9969 133.656C96.8469 133.294 96.6313 132.975 96.3532 132.697C96.0751 132.419 95.7532 132.203 95.3907 132.053C95.0251 131.903 94.6469 131.828 94.2532 131.828ZM125.697 131.828C125.303 131.828 124.922 131.9 124.556 132.053C124.194 132.203 123.869 132.416 123.591 132.694C123.313 132.975 123.097 133.294 122.944 133.659C122.794 134.025 122.716 134.403 122.716 134.797C122.716 135.194 122.791 135.572 122.941 135.938C123.094 136.3 123.309 136.622 123.588 136.903C123.866 137.181 124.188 137.397 124.553 137.547C124.916 137.697 125.297 137.772 125.691 137.772C126.084 137.772 126.466 137.697 126.831 137.544C127.194 137.394 127.516 137.178 127.794 136.9C128.072 136.619 128.288 136.297 128.438 135.931C128.588 135.566 128.663 135.188 128.663 134.794C128.659 134.4 128.584 134.022 128.434 133.659C128.281 133.297 128.069 132.975 127.791 132.7C127.513 132.422 127.194 132.206 126.831 132.056C126.466 131.906 126.091 131.828 125.697 131.828ZM157.138 131.828C156.747 131.831 156.369 131.909 156.006 132.063C155.644 132.213 155.325 132.428 155.05 132.709C154.775 132.988 154.559 133.309 154.413 133.672C154.263 134.034 154.188 134.413 154.191 134.806C154.191 135.197 154.266 135.575 154.416 135.938C154.566 136.3 154.781 136.622 155.056 136.9C155.334 137.178 155.653 137.391 156.016 137.544C156.378 137.694 156.756 137.772 157.15 137.772C157.541 137.775 157.919 137.7 158.284 137.553C158.647 137.406 158.969 137.194 159.247 136.919C159.528 136.641 159.744 136.322 159.897 135.963C160.05 135.6 160.131 135.222 160.134 134.831C160.138 134.431 160.066 134.047 159.916 133.678C159.763 133.309 159.547 132.984 159.266 132.7C158.984 132.419 158.659 132.203 158.291 132.05C157.922 131.9 157.538 131.825 157.138 131.828ZM188.572 131.828C188.178 131.828 187.8 131.903 187.434 132.053C187.072 132.206 186.75 132.422 186.472 132.7C186.191 132.978 185.978 133.3 185.825 133.666C185.675 134.028 185.6 134.409 185.6 134.803C185.6 135.197 185.678 135.578 185.828 135.941C185.978 136.306 186.194 136.625 186.475 136.906C186.753 137.184 187.075 137.397 187.441 137.547C187.803 137.7 188.184 137.772 188.578 137.772C188.972 137.772 189.353 137.697 189.716 137.544C190.081 137.394 190.4 137.178 190.678 136.897C190.956 136.619 191.172 136.297 191.322 135.931C191.472 135.566 191.547 135.188 191.547 134.794C191.544 134.4 191.469 134.022 191.316 133.656C191.166 133.294 190.95 132.975 190.672 132.697C190.394 132.419 190.072 132.203 189.709 132.053C189.344 131.903 188.966 131.828 188.572 131.828ZM220.016 131.828C219.622 131.828 219.241 131.903 218.878 132.053C218.513 132.206 218.191 132.422 217.913 132.7C217.634 132.978 217.419 133.3 217.269 133.666C217.119 134.028 217.044 134.409 217.044 134.803C217.044 135.197 217.119 135.575 217.269 135.941C217.422 136.306 217.638 136.625 217.916 136.906C218.197 137.184 218.519 137.397 218.881 137.547C219.247 137.7 219.625 137.772 220.019 137.772C220.416 137.772 220.794 137.697 221.159 137.544C221.522 137.394 221.844 137.178 222.122 136.897C222.4 136.619 222.613 136.297 222.763 135.931C222.916 135.566 222.988 135.188 222.988 134.794C222.988 134.4 222.909 134.022 222.759 133.656C222.609 133.294 222.394 132.975 222.116 132.697C221.834 132.419 221.516 132.203 221.15 132.053C220.788 131.903 220.409 131.828 220.016 131.828ZM251.456 131.828C251.063 131.825 250.684 131.897 250.319 132.044C249.953 132.191 249.628 132.4 249.347 132.678C249.066 132.953 248.847 133.272 248.694 133.634C248.538 133.997 248.459 134.375 248.456 134.769C248.45 135.163 248.522 135.544 248.669 135.909C248.816 136.275 249.028 136.6 249.303 136.881C249.581 137.163 249.9 137.381 250.263 137.534C250.625 137.691 251.003 137.769 251.397 137.772C251.791 137.775 252.172 137.706 252.538 137.559C252.903 137.409 253.225 137.2 253.506 136.925C253.788 136.647 254.006 136.328 254.163 135.966C254.316 135.603 254.397 135.225 254.4 134.831C254.403 134.438 254.331 134.056 254.184 133.691C254.038 133.325 253.825 133.003 253.55 132.719C253.275 132.438 252.956 132.222 252.594 132.066C252.231 131.913 251.85 131.831 251.456 131.828ZM-31.5062 162.238C-31.8999 162.234 -32.2781 162.309 -32.6437 162.459C-33.0062 162.609 -33.3281 162.822 -33.6093 163.1C-33.8874 163.375 -34.1031 163.697 -34.2562 164.059C-34.4062 164.422 -34.4843 164.8 -34.4874 165.194C-34.4874 165.588 -34.4156 165.966 -34.2656 166.331C-34.1187 166.694 -33.9062 167.016 -33.6281 167.297C-33.3531 167.578 -33.0343 167.794 -32.6718 167.947C-32.3093 168.1 -31.9312 168.178 -31.5374 168.181C-31.1437 168.184 -30.7656 168.113 -30.3999 167.966C-30.0343 167.816 -29.7124 167.606 -29.4312 167.328C-29.1499 167.053 -28.9343 166.734 -28.7781 166.372C-28.6249 166.009 -28.5468 165.631 -28.5406 165.238C-28.5406 164.844 -28.6124 164.466 -28.7624 164.1C-28.9124 163.734 -29.1249 163.409 -29.4031 163.131C-29.6812 162.85 -30.0031 162.634 -30.3687 162.481C-30.7312 162.328 -31.1124 162.253 -31.5062 162.25V162.238ZM-0.0655556 162.238C-0.459305 162.234 -0.837429 162.309 -1.20305 162.459C-1.56868 162.609 -1.89055 162.825 -2.16868 163.103C-2.44993 163.381 -2.66555 163.703 -2.81555 164.066C-2.96868 164.431 -3.04368 164.809 -3.04368 165.203C-3.0468 165.597 -2.9718 165.978 -2.81868 166.341C-2.66868 166.706 -2.45618 167.028 -2.17805 167.306C-1.8968 167.588 -1.57805 167.803 -1.21243 167.953C-0.84993 168.106 -0.468678 168.181 -0.0749283 168.181C0.318821 168.181 0.700069 168.106 1.06257 167.956C1.4282 167.806 1.75007 167.591 2.02819 167.313C2.30632 167.031 2.52195 166.713 2.67507 166.347C2.82507 165.981 2.90007 165.603 2.90007 165.209C2.89695 164.816 2.82195 164.441 2.66882 164.078C2.51882 163.716 2.3032 163.397 2.02819 163.119C1.75007 162.844 1.4282 162.628 1.0657 162.478C0.706322 162.328 0.328197 162.253 -0.0655556 162.25V162.238ZM31.3688 162.238C30.9782 162.238 30.5969 162.313 30.2344 162.463C29.8719 162.613 29.5501 162.825 29.2719 163.103C28.9938 163.381 28.7782 163.7 28.6282 164.066C28.4751 164.428 28.4001 164.806 28.3969 165.2C28.3969 165.591 28.4688 165.972 28.6188 166.334C28.7688 166.7 28.9813 167.019 29.2563 167.3C29.5344 167.578 29.8532 167.794 30.2157 167.947C30.5782 168.1 30.9563 168.178 31.3501 168.181C31.7438 168.184 32.1219 168.113 32.4876 167.963C32.8501 167.816 33.1751 167.603 33.4532 167.328C33.7344 167.053 33.9501 166.734 34.1063 166.372C34.2594 166.009 34.3376 165.631 34.3438 165.238C34.3438 164.844 34.2719 164.463 34.1219 164.097C33.9719 163.731 33.7563 163.406 33.4782 163.128C33.1969 162.847 32.8751 162.631 32.5094 162.478C32.1469 162.328 31.7657 162.25 31.3688 162.25V162.238ZM62.8126 162.238C62.4188 162.238 62.0376 162.313 61.6751 162.463C61.3094 162.613 60.9876 162.828 60.7094 163.106C60.4313 163.384 60.2157 163.706 60.0657 164.072C59.9157 164.434 59.8407 164.816 59.8407 165.209C59.8407 165.603 59.9157 165.981 60.0657 166.347C60.2157 166.709 60.4313 167.031 60.7094 167.309C60.9876 167.591 61.3094 167.803 61.6751 167.956C62.0376 168.106 62.4188 168.181 62.8126 168.181C63.2063 168.181 63.5844 168.106 63.9501 167.956C64.3126 167.803 64.6344 167.591 64.9126 167.309C65.1938 167.031 65.4063 166.709 65.5594 166.347C65.7094 165.981 65.7844 165.603 65.7844 165.209C65.7813 164.816 65.7063 164.441 65.5563 164.078C65.4032 163.719 65.1907 163.4 64.9126 163.122C64.6376 162.844 64.3188 162.631 63.9563 162.481C63.5938 162.331 63.2188 162.253 62.8282 162.25L62.8126 162.238ZM94.2532 162.238C93.8594 162.238 93.4813 162.313 93.1157 162.463C92.7532 162.613 92.4313 162.828 92.1532 163.106C91.8751 163.384 91.6594 163.706 91.5094 164.072C91.3563 164.434 91.2813 164.816 91.2813 165.209C91.2813 165.603 91.3563 165.981 91.5094 166.347C91.6594 166.709 91.8751 167.031 92.1532 167.309C92.4313 167.591 92.7532 167.803 93.1157 167.956C93.4813 168.106 93.8594 168.181 94.2532 168.181C94.6469 168.181 95.0282 168.106 95.3907 167.956C95.7563 167.803 96.0782 167.591 96.3563 167.309C96.6344 167.031 96.8501 166.709 97.0001 166.347C97.1501 165.981 97.2282 165.603 97.2282 165.209C97.2251 164.816 97.1469 164.438 96.9969 164.075C96.8438 163.713 96.6282 163.394 96.3501 163.116C96.0719 162.841 95.7501 162.625 95.3876 162.475C95.0251 162.325 94.6469 162.25 94.2532 162.25V162.238ZM125.697 162.238C125.303 162.234 124.922 162.309 124.556 162.459C124.194 162.609 123.872 162.825 123.591 163.103C123.313 163.381 123.097 163.703 122.944 164.066C122.794 164.431 122.716 164.809 122.716 165.203C122.716 165.597 122.791 165.978 122.941 166.341C123.091 166.706 123.306 167.028 123.584 167.306C123.863 167.588 124.184 167.803 124.547 167.953C124.913 168.106 125.291 168.181 125.688 168.181C126.081 168.181 126.459 168.106 126.825 167.956C127.188 167.806 127.509 167.591 127.791 167.313C128.069 167.031 128.284 166.713 128.434 166.347C128.584 165.981 128.663 165.603 128.663 165.209C128.659 164.816 128.581 164.441 128.431 164.078C128.281 163.716 128.066 163.397 127.788 163.119C127.509 162.844 127.191 162.628 126.828 162.478C126.466 162.328 126.088 162.253 125.697 162.25V162.238ZM157.138 162.238C156.747 162.241 156.369 162.316 156.006 162.469C155.644 162.622 155.325 162.838 155.05 163.116C154.775 163.397 154.559 163.716 154.413 164.081C154.263 164.444 154.188 164.822 154.191 165.213C154.191 165.606 154.266 165.984 154.416 166.347C154.566 166.709 154.781 167.031 155.056 167.306C155.334 167.584 155.653 167.8 156.016 167.95C156.378 168.103 156.756 168.178 157.15 168.181C157.541 168.181 157.919 168.109 158.284 167.963C158.647 167.813 158.969 167.6 159.247 167.325C159.528 167.05 159.744 166.731 159.897 166.369C160.05 166.009 160.131 165.631 160.134 165.238C160.134 164.841 160.063 164.459 159.909 164.091C159.759 163.725 159.541 163.4 159.259 163.119C158.978 162.838 158.653 162.622 158.288 162.472C157.919 162.322 157.538 162.247 157.138 162.25V162.238ZM188.572 162.238C188.178 162.238 187.8 162.313 187.434 162.463C187.072 162.613 186.75 162.828 186.472 163.106C186.194 163.384 185.978 163.706 185.828 164.072C185.675 164.434 185.6 164.816 185.6 165.209C185.6 165.603 185.675 165.981 185.828 166.347C185.978 166.709 186.194 167.031 186.472 167.309C186.75 167.591 187.072 167.803 187.434 167.956C187.8 168.106 188.178 168.181 188.572 168.181C188.969 168.181 189.347 168.106 189.709 167.956C190.075 167.803 190.397 167.591 190.675 167.309C190.953 167.031 191.169 166.709 191.319 166.347C191.469 165.981 191.547 165.603 191.547 165.209C191.544 164.816 191.466 164.438 191.316 164.075C191.163 163.713 190.947 163.394 190.669 163.116C190.391 162.841 190.069 162.625 189.706 162.475C189.344 162.325 188.966 162.25 188.572 162.25V162.238ZM220.016 162.238C219.622 162.238 219.241 162.313 218.878 162.463C218.513 162.613 218.191 162.828 217.913 163.106C217.634 163.384 217.419 163.706 217.269 164.072C217.119 164.434 217.044 164.816 217.044 165.209C217.044 165.603 217.119 165.981 217.269 166.347C217.419 166.709 217.634 167.031 217.913 167.309C218.191 167.591 218.513 167.803 218.878 167.956C219.241 168.106 219.622 168.181 220.016 168.181C220.409 168.181 220.788 168.106 221.153 167.956C221.516 167.803 221.838 167.591 222.116 167.309C222.397 167.031 222.609 166.709 222.763 166.347C222.913 165.981 222.988 165.603 222.988 165.209C222.984 164.816 222.909 164.438 222.756 164.075C222.606 163.713 222.391 163.394 222.113 163.116C221.834 162.841 221.513 162.625 221.15 162.475C220.788 162.325 220.409 162.25 220.016 162.25V162.238ZM251.456 162.238C251.063 162.231 250.684 162.303 250.319 162.45C249.953 162.597 249.628 162.809 249.347 163.084C249.066 163.363 248.847 163.681 248.694 164.044C248.538 164.406 248.459 164.784 248.456 165.178C248.45 165.572 248.522 165.953 248.669 166.319C248.816 166.684 249.028 167.006 249.303 167.288C249.581 167.569 249.9 167.788 250.263 167.944C250.625 168.097 251.003 168.178 251.397 168.181C251.791 168.184 252.172 168.113 252.538 167.966C252.903 167.819 253.225 167.606 253.506 167.331C253.788 167.056 254.006 166.738 254.163 166.375C254.316 166.013 254.397 165.634 254.4 165.238C254.4 164.847 254.328 164.469 254.181 164.103C254.031 163.741 253.822 163.419 253.544 163.138C253.269 162.859 252.95 162.641 252.591 162.488C252.228 162.334 251.85 162.256 251.456 162.25V162.238ZM-31.5062 192.681C-31.8999 192.681 -32.2812 192.756 -32.6468 192.906C-33.0093 193.056 -33.3343 193.272 -33.6124 193.55C-33.8906 193.828 -34.1062 194.15 -34.2593 194.513C-34.4093 194.878 -34.4874 195.256 -34.4874 195.653C-34.4874 196.047 -34.4124 196.428 -34.2624 196.791C-34.1093 197.156 -33.8937 197.478 -33.6156 197.756C-33.3374 198.034 -33.0156 198.25 -32.6499 198.403C-32.2874 198.553 -31.9062 198.628 -31.5124 198.628C-31.1187 198.628 -30.7374 198.55 -30.3718 198.4C-30.0093 198.247 -29.6874 198.031 -29.4093 197.753C-29.1312 197.475 -28.9156 197.15 -28.7656 196.788C-28.6156 196.422 -28.5406 196.041 -28.5406 195.647C-28.5437 195.253 -28.6187 194.878 -28.7687 194.513C-28.9218 194.15 -29.1343 193.831 -29.4124 193.553C-29.6906 193.275 -30.0093 193.063 -30.3718 192.909C-30.7374 192.759 -31.1124 192.684 -31.5062 192.681ZM-0.0655556 192.681C-0.459305 192.681 -0.837429 192.756 -1.20305 192.906C-1.56868 193.056 -1.89055 193.272 -2.1718 193.55C-2.44993 193.828 -2.66555 194.15 -2.81555 194.513C-2.96868 194.878 -3.04368 195.256 -3.04368 195.653C-3.04368 196.047 -2.96868 196.428 -2.81868 196.791C-2.66868 197.156 -2.45305 197.478 -2.17493 197.756C-1.89368 198.034 -1.5718 198.25 -1.2093 198.4C-0.843678 198.553 -0.465553 198.628 -0.0686798 198.628C0.325073 198.628 0.703194 198.55 1.06882 198.4C1.43444 198.247 1.7532 198.031 2.03445 197.753C2.31257 197.475 2.52507 197.15 2.67507 196.788C2.8282 196.422 2.90007 196.041 2.90007 195.647C2.90007 195.253 2.82195 194.878 2.67195 194.513C2.52195 194.15 2.30632 193.831 2.02819 193.553C1.7532 193.275 1.43132 193.063 1.06882 192.909C0.706322 192.759 0.328197 192.684 -0.0655556 192.681ZM31.3688 192.681C30.9751 192.681 30.5969 192.759 30.2313 192.909C29.8688 193.059 29.5469 193.275 29.2688 193.553C28.9876 193.834 28.7751 194.156 28.6219 194.519C28.4719 194.884 28.3969 195.263 28.3969 195.656C28.3969 196.053 28.4751 196.431 28.6251 196.797C28.7751 197.159 28.9907 197.481 29.2719 197.759C29.5501 198.038 29.8719 198.253 30.2376 198.403C30.6001 198.553 30.9813 198.628 31.3751 198.628C31.7688 198.628 32.1501 198.55 32.5126 198.4C32.8782 198.247 33.1969 198.031 33.4751 197.753C33.7532 197.472 33.9688 197.15 34.1188 196.788C34.2688 196.422 34.3438 196.041 34.3438 195.647C34.3407 195.253 34.2657 194.875 34.1126 194.513C33.9626 194.15 33.7469 193.828 33.4688 193.55C33.1907 193.272 32.8688 193.059 32.5063 192.909C32.1407 192.756 31.7626 192.681 31.3688 192.681ZM62.8126 192.681C62.4188 192.681 62.0376 192.759 61.6751 192.909C61.3094 193.059 60.9876 193.275 60.7094 193.553C60.4313 193.834 60.2157 194.156 60.0657 194.519C59.9157 194.884 59.8407 195.263 59.8407 195.656C59.8407 196.053 59.9157 196.431 60.0657 196.797C60.2188 197.159 60.4344 197.481 60.7126 197.759C60.9907 198.038 61.3157 198.253 61.6782 198.403C62.0438 198.553 62.4219 198.628 62.8157 198.628C63.2126 198.628 63.5907 198.55 63.9563 198.4C64.3188 198.247 64.6407 198.031 64.9188 197.753C65.1969 197.472 65.4094 197.15 65.5594 196.788C65.7126 196.422 65.7844 196.041 65.7844 195.647C65.7844 195.256 65.7094 194.878 65.5563 194.516C65.4063 194.153 65.1938 193.834 64.9157 193.556C64.6407 193.278 64.3188 193.063 63.9594 192.913C63.5969 192.763 63.2188 192.684 62.8282 192.681H62.8126ZM94.2532 192.681C93.8594 192.681 93.4813 192.759 93.1157 192.909C92.7532 193.059 92.4313 193.275 92.1501 193.553C91.8719 193.834 91.6594 194.156 91.5063 194.519C91.3563 194.884 91.2813 195.263 91.2813 195.656C91.2813 196.053 91.3594 196.431 91.5094 196.797C91.6594 197.159 91.8751 197.481 92.1563 197.759C92.4344 198.038 92.7563 198.253 93.1219 198.403C93.4844 198.553 93.8657 198.628 94.2594 198.628C94.6532 198.628 95.0344 198.55 95.3969 198.4C95.7626 198.247 96.0813 198.031 96.3594 197.753C96.6376 197.472 96.8532 197.15 97.0032 196.788C97.1532 196.422 97.2282 196.041 97.2282 195.647C97.2251 195.253 97.1501 194.875 96.9969 194.513C96.8469 194.15 96.6313 193.828 96.3532 193.55C96.0751 193.272 95.7532 193.059 95.3907 192.909C95.0251 192.756 94.6469 192.681 94.2532 192.681ZM125.697 192.681C125.303 192.681 124.922 192.756 124.556 192.906C124.194 193.056 123.869 193.272 123.591 193.55C123.313 193.828 123.097 194.15 122.944 194.513C122.794 194.878 122.716 195.256 122.716 195.653C122.716 196.047 122.791 196.428 122.941 196.791C123.094 197.156 123.309 197.478 123.588 197.756C123.866 198.034 124.188 198.25 124.553 198.4C124.916 198.553 125.297 198.628 125.691 198.628C126.084 198.628 126.466 198.55 126.831 198.4C127.194 198.247 127.516 198.031 127.794 197.753C128.072 197.475 128.288 197.15 128.438 196.788C128.588 196.422 128.663 196.041 128.663 195.647C128.659 195.253 128.584 194.878 128.434 194.513C128.281 194.15 128.069 193.831 127.791 193.553C127.513 193.275 127.194 193.063 126.831 192.909C126.466 192.759 126.091 192.684 125.697 192.681ZM157.138 192.681C156.744 192.684 156.366 192.763 156.003 192.916C155.641 193.072 155.322 193.288 155.044 193.569C154.769 193.847 154.556 194.169 154.409 194.534C154.259 194.9 154.188 195.278 154.188 195.672C154.191 196.066 154.269 196.444 154.422 196.806C154.575 197.172 154.791 197.491 155.069 197.769C155.35 198.044 155.672 198.256 156.038 198.406C156.4 198.556 156.781 198.628 157.175 198.628C157.569 198.625 157.947 198.55 158.309 198.397C158.672 198.244 158.994 198.028 159.269 197.75C159.547 197.469 159.763 197.147 159.909 196.784C160.059 196.419 160.134 196.041 160.134 195.647C160.131 195.253 160.056 194.872 159.903 194.506C159.75 194.141 159.534 193.822 159.253 193.544C158.972 193.266 158.647 193.05 158.281 192.9C157.916 192.753 157.534 192.678 157.138 192.681ZM188.572 192.681C188.178 192.681 187.8 192.759 187.434 192.909C187.072 193.059 186.75 193.275 186.472 193.553C186.191 193.834 185.978 194.156 185.825 194.519C185.675 194.884 185.6 195.263 185.6 195.656C185.6 196.053 185.678 196.431 185.828 196.797C185.978 197.159 186.194 197.481 186.475 197.759C186.753 198.038 187.075 198.253 187.441 198.403C187.803 198.553 188.184 198.628 188.578 198.628C188.972 198.628 189.353 198.55 189.716 198.4C190.081 198.247 190.4 198.031 190.678 197.753C190.956 197.472 191.172 197.15 191.322 196.788C191.472 196.422 191.547 196.041 191.547 195.647C191.544 195.253 191.469 194.875 191.316 194.513C191.166 194.15 190.95 193.828 190.672 193.55C190.394 193.272 190.072 193.059 189.709 192.909C189.344 192.756 188.966 192.681 188.572 192.681ZM220.016 192.681C219.622 192.681 219.241 192.759 218.878 192.909C218.513 193.059 218.191 193.275 217.913 193.553C217.634 193.834 217.419 194.156 217.269 194.519C217.119 194.884 217.044 195.263 217.044 195.656C217.044 196.053 217.119 196.431 217.272 196.797C217.422 197.159 217.638 197.481 217.916 197.759C218.197 198.038 218.519 198.253 218.881 198.403C219.247 198.553 219.625 198.628 220.022 198.628C220.416 198.628 220.794 198.55 221.159 198.4C221.522 198.247 221.844 198.031 222.122 197.753C222.4 197.472 222.613 197.15 222.766 196.788C222.916 196.422 222.988 196.041 222.988 195.647C222.988 195.253 222.909 194.875 222.759 194.513C222.609 194.15 222.394 193.828 222.116 193.55C221.834 193.272 221.516 193.059 221.15 192.909C220.788 192.756 220.409 192.681 220.016 192.681ZM251.456 192.681C251.063 192.678 250.681 192.75 250.316 192.897C249.947 193.047 249.625 193.259 249.344 193.538C249.059 193.813 248.844 194.134 248.688 194.497C248.534 194.863 248.456 195.241 248.453 195.638C248.453 196.031 248.525 196.413 248.675 196.778C248.825 197.144 249.038 197.469 249.316 197.75C249.597 198.028 249.916 198.247 250.281 198.397C250.647 198.55 251.028 198.625 251.422 198.628C251.816 198.628 252.197 198.553 252.563 198.403C252.928 198.25 253.25 198.034 253.528 197.756C253.809 197.475 254.025 197.153 254.175 196.788C254.325 196.422 254.4 196.044 254.4 195.647C254.397 195.256 254.322 194.881 254.175 194.519C254.025 194.159 253.813 193.838 253.538 193.563C253.263 193.284 252.944 193.069 252.584 192.916C252.225 192.766 251.847 192.688 251.456 192.681ZM-31.5062 223.091C-31.8999 223.091 -32.2812 223.166 -32.6468 223.316C-33.0093 223.466 -33.3343 223.678 -33.6124 223.956C-33.8906 224.238 -34.1062 224.559 -34.2593 224.922C-34.4093 225.288 -34.4874 225.666 -34.4874 226.059C-34.4874 226.456 -34.4124 226.834 -34.2624 227.2C-34.1093 227.566 -33.8937 227.888 -33.6156 228.166C-33.3374 228.444 -33.0156 228.659 -32.6499 228.809C-32.2874 228.959 -31.9062 229.034 -31.5124 229.034C-31.1187 229.034 -30.7374 228.959 -30.3718 228.809C-30.0093 228.656 -29.6874 228.441 -29.4093 228.163C-29.1312 227.881 -28.9156 227.559 -28.7656 227.194C-28.6156 226.831 -28.5406 226.45 -28.5406 226.056C-28.5437 225.663 -28.6218 225.288 -28.7749 224.928C-28.9249 224.566 -29.1406 224.247 -29.4187 223.972C-29.6968 223.694 -30.0156 223.481 -30.3781 223.331C-30.7374 223.181 -31.1156 223.106 -31.5062 223.106V223.091ZM-0.0655556 223.091C-0.459305 223.091 -0.837429 223.166 -1.20305 223.316C-1.56868 223.466 -1.89055 223.678 -2.16868 223.956C-2.44993 224.234 -2.66555 224.556 -2.81555 224.922C-2.96868 225.284 -3.04368 225.663 -3.04368 226.059C-3.0468 226.453 -2.9718 226.831 -2.81868 227.197C-2.66868 227.563 -2.45618 227.884 -2.17805 228.163C-1.8968 228.441 -1.57805 228.656 -1.21243 228.809C-0.84993 228.959 -0.468678 229.034 -0.0749283 229.034C0.318821 229.034 0.700069 228.959 1.06257 228.809C1.4282 228.659 1.75007 228.444 2.02819 228.166C2.30632 227.888 2.52195 227.566 2.67507 227.2C2.82507 226.838 2.90007 226.456 2.90007 226.063C2.89695 225.672 2.82195 225.294 2.66882 224.931C2.51882 224.569 2.3032 224.25 2.02819 223.975C1.75007 223.697 1.4282 223.484 1.0657 223.334C0.706322 223.181 0.328197 223.106 -0.0655556 223.106V223.091ZM31.3688 223.091C30.9751 223.091 30.5969 223.166 30.2313 223.319C29.8688 223.469 29.5469 223.684 29.2688 223.963C28.9876 224.241 28.7751 224.563 28.6219 224.928C28.4719 225.291 28.3969 225.672 28.3969 226.066C28.3969 226.459 28.4751 226.841 28.6251 227.203C28.7751 227.569 28.9907 227.891 29.2719 228.169C29.5501 228.447 29.8719 228.659 30.2376 228.813C30.6001 228.963 30.9813 229.038 31.3751 229.034C31.7688 229.034 32.1501 228.959 32.5126 228.806C32.8782 228.656 33.1969 228.441 33.4751 228.159C33.7532 227.881 33.9688 227.559 34.1188 227.194C34.2688 226.828 34.3438 226.45 34.3438 226.056C34.3407 225.663 34.2626 225.288 34.1094 224.925C33.9563 224.563 33.7407 224.244 33.4626 223.969C33.1844 223.694 32.8657 223.478 32.5032 223.331C32.1407 223.181 31.7626 223.106 31.3688 223.106V223.091ZM62.8126 223.091C62.4188 223.091 62.0376 223.166 61.6751 223.316C61.3094 223.469 60.9876 223.681 60.7094 223.963C60.4313 224.241 60.2157 224.563 60.0657 224.925C59.9157 225.291 59.8407 225.669 59.8407 226.063C59.8407 226.456 59.9157 226.838 60.0657 227.2C60.2157 227.566 60.4313 227.888 60.7094 228.166C60.9876 228.444 61.3094 228.659 61.6751 228.809C62.0376 228.959 62.4188 229.034 62.8126 229.034C63.2063 229.034 63.5844 228.959 63.9501 228.809C64.3126 228.659 64.6344 228.444 64.9126 228.166C65.1938 227.888 65.4063 227.566 65.5594 227.2C65.7094 226.838 65.7844 226.456 65.7844 226.063C65.7813 225.672 65.7063 225.294 65.5563 224.934C65.4032 224.572 65.1907 224.253 64.9126 223.975C64.6376 223.7 64.3188 223.484 63.9563 223.334C63.5938 223.184 63.2188 223.109 62.8282 223.106L62.8126 223.091ZM94.2532 223.091C93.8594 223.091 93.4813 223.166 93.1157 223.316C92.7532 223.469 92.4313 223.681 92.1532 223.963C91.8751 224.241 91.6594 224.563 91.5094 224.925C91.3563 225.291 91.2813 225.669 91.2813 226.063C91.2813 226.456 91.3563 226.838 91.5094 227.2C91.6594 227.566 91.8751 227.888 92.1532 228.166C92.4313 228.444 92.7532 228.659 93.1157 228.809C93.4813 228.959 93.8594 229.034 94.2532 229.034C94.6469 229.034 95.0282 228.959 95.3907 228.809C95.7563 228.659 96.0782 228.444 96.3563 228.166C96.6344 227.888 96.8501 227.566 97.0001 227.2C97.1501 226.838 97.2282 226.456 97.2282 226.063C97.2251 225.672 97.1469 225.294 96.9969 224.931C96.8438 224.569 96.6282 224.247 96.3501 223.972C96.0719 223.694 95.7501 223.481 95.3876 223.331C95.0251 223.181 94.6469 223.106 94.2532 223.106V223.091ZM125.697 223.091C125.303 223.091 124.922 223.166 124.556 223.316C124.194 223.466 123.872 223.678 123.591 223.956C123.313 224.234 123.097 224.556 122.944 224.922C122.794 225.284 122.716 225.663 122.716 226.059C122.716 226.453 122.791 226.831 122.941 227.197C123.091 227.563 123.306 227.884 123.584 228.163C123.863 228.441 124.184 228.656 124.547 228.809C124.913 228.959 125.291 229.034 125.688 229.034C126.081 229.034 126.459 228.959 126.825 228.809C127.188 228.659 127.509 228.444 127.791 228.166C128.069 227.888 128.284 227.566 128.434 227.2C128.584 226.838 128.663 226.456 128.663 226.063C128.659 225.672 128.581 225.294 128.431 224.931C128.281 224.569 128.066 224.25 127.788 223.975C127.509 223.697 127.191 223.484 126.828 223.334C126.466 223.181 126.088 223.106 125.697 223.106V223.091ZM157.138 223.091C156.744 223.094 156.366 223.172 156.003 223.325C155.641 223.478 155.322 223.697 155.044 223.975C154.769 224.256 154.556 224.578 154.409 224.944C154.259 225.309 154.188 225.688 154.188 226.081C154.191 226.475 154.269 226.853 154.422 227.216C154.575 227.578 154.791 227.9 155.069 228.175C155.35 228.453 155.672 228.666 156.038 228.816C156.4 228.963 156.781 229.038 157.175 229.034C157.569 229.034 157.947 228.956 158.309 228.806C158.672 228.653 158.994 228.438 159.269 228.156C159.547 227.878 159.763 227.556 159.909 227.194C160.059 226.828 160.134 226.45 160.134 226.056C160.131 225.663 160.053 225.284 159.9 224.919C159.744 224.556 159.528 224.238 159.247 223.959C158.966 223.684 158.644 223.472 158.278 223.325C157.913 223.175 157.531 223.103 157.138 223.106V223.091ZM188.572 223.091C188.178 223.091 187.8 223.166 187.434 223.316C187.072 223.469 186.75 223.681 186.472 223.963C186.194 224.241 185.978 224.563 185.828 224.925C185.675 225.291 185.6 225.669 185.6 226.063C185.6 226.456 185.675 226.838 185.828 227.2C185.978 227.566 186.194 227.888 186.472 228.166C186.75 228.444 187.072 228.659 187.434 228.809C187.8 228.959 188.178 229.034 188.572 229.034C188.969 229.034 189.347 228.959 189.709 228.809C190.075 228.659 190.397 228.444 190.675 228.166C190.953 227.888 191.169 227.566 191.319 227.2C191.469 226.838 191.547 226.456 191.547 226.063C191.544 225.672 191.466 225.294 191.316 224.931C191.163 224.569 190.947 224.247 190.669 223.972C190.391 223.694 190.069 223.481 189.706 223.331C189.344 223.181 188.966 223.106 188.572 223.106V223.091ZM220.016 223.091C219.622 223.091 219.241 223.166 218.878 223.316C218.513 223.469 218.191 223.681 217.913 223.963C217.634 224.241 217.419 224.563 217.269 224.925C217.119 225.291 217.044 225.669 217.044 226.063C217.044 226.456 217.119 226.838 217.269 227.2C217.419 227.566 217.634 227.888 217.913 228.166C218.191 228.444 218.513 228.659 218.878 228.809C219.241 228.959 219.622 229.034 220.016 229.034C220.409 229.034 220.788 228.959 221.153 228.809C221.516 228.659 221.838 228.444 222.116 228.166C222.397 227.888 222.609 227.566 222.763 227.2C222.913 226.838 222.988 226.456 222.988 226.063C222.984 225.672 222.909 225.294 222.756 224.931C222.606 224.569 222.391 224.247 222.113 223.972C221.834 223.694 221.513 223.481 221.15 223.331C220.788 223.181 220.409 223.106 220.016 223.106V223.091ZM251.456 223.091C251.063 223.088 250.681 223.159 250.316 223.306C249.947 223.453 249.625 223.666 249.344 223.944C249.059 224.222 248.844 224.541 248.688 224.906C248.534 225.272 248.456 225.65 248.453 226.044C248.453 226.441 248.525 226.822 248.675 227.188C248.825 227.553 249.038 227.875 249.316 228.156C249.597 228.438 249.916 228.653 250.281 228.806C250.647 228.959 251.028 229.034 251.422 229.034C251.816 229.038 252.197 228.963 252.563 228.809C252.928 228.659 253.25 228.444 253.528 228.163C253.809 227.884 254.025 227.563 254.175 227.197C254.325 226.831 254.4 226.45 254.4 226.056C254.397 225.666 254.319 225.291 254.169 224.931C254.019 224.572 253.806 224.256 253.531 223.978C253.256 223.703 252.941 223.491 252.581 223.338C252.222 223.188 251.847 223.109 251.456 223.106V223.091Z" fill="#FF7F00"/>
</g>
</svg>
