<svg width="176" height="301" viewBox="0 0 176 301" fill="none" xmlns="http://www.w3.org/2000/svg">
<g clip-path="url(#clip0_1119_334)">
<mask id="mask0_1119_334" style="mask-type:luminance" maskUnits="userSpaceOnUse" x="-125" y="99" width="301" height="104">
<path d="M-124.893 99.0613H175.107V202.208H-124.893V99.0613Z" fill="white"/>
</mask>
<g mask="url(#mask0_1119_334)">
<path d="M92.3349 202.149L90.4037 200.218L130.026 160.596L131.96 162.527L92.3349 202.149ZM88.9193 162.527L86.9881 160.596L47.3631 200.218L49.2974 202.149L88.9193 162.527ZM45.8818 162.527L43.9474 160.596L4.32556 200.218L6.25993 202.149L45.8818 162.527ZM2.84431 162.527L0.909935 160.596L-38.7119 200.218L-36.7807 202.149L2.84431 162.527ZM-40.1963 162.527L-42.1838 160.58L-81.8057 200.202L-79.8807 202.136L-40.1963 162.527ZM175.051 162.527L173.119 160.596L133.494 200.218L135.429 202.149L175.051 162.527ZM-83.2463 162.527L-85.2213 160.58L-124.846 200.202L-122.912 202.136L-83.2463 162.527ZM132.001 101.043L130.032 99.0613L90.4099 138.686L92.3412 140.611L132.001 101.043ZM88.9599 101.043L86.9881 99.0613L47.3631 138.686L49.2974 140.611L88.9599 101.043ZM45.9224 101.043L43.9349 99.0613L4.31306 138.686L6.24431 140.611L45.9224 101.043ZM2.88494 101.043L0.888062 99.0613L-38.7682 138.686L-36.8338 140.611L2.88494 101.043ZM-40.1557 101.043L-42.1838 99.0613L-81.8057 138.686L-79.8807 140.611L-40.1557 101.043ZM175.091 101.043L173.085 99.0613L133.46 138.686L135.394 140.611L175.091 101.043ZM-83.2057 101.043L-85.2213 99.0613L-124.846 138.686L-122.912 140.611L-83.2057 101.043Z" fill="#FF7F00"/>
</g>
</g>
<defs>
<clipPath id="clip0_1119_334">
<rect width="300" height="300" fill="white" transform="translate(-124.893 0.608154)"/>
</clipPath>
</defs>
</svg>
