<svg width="337" height="672" viewBox="0 0 337 672" fill="none" xmlns="http://www.w3.org/2000/svg">
<g clip-path="url(#clip0_1119_313)">
<mask id="mask0_1119_313" style="mask-type:luminance" maskUnits="userSpaceOnUse" x="11" y="12" width="627" height="648">
<path d="M186.449 12.9893L637.351 195.173L462.291 659.918L11.3887 477.735L186.449 12.9893Z" fill="white"/>
</mask>
<g mask="url(#mask0_1119_313)">
<path d="M501.185 279.403C498.986 277.269 497.026 275.024 494.827 272.891C473.441 250.973 461.252 226.964 454.107 192.752C453.138 188.424 452.371 183.545 451.426 178.601C446.414 150.439 440.094 115.108 411.834 104.523C378.598 91.714 345.624 118.638 313.646 144.506C294.027 160.435 275.576 175.387 257.746 181.252C243.818 185.786 226.577 187.951 208.439 190.373C164.861 195.996 115.573 202.426 99.568 244.915C85.0549 283.444 116.099 325.448 143.437 362.421C156.962 380.746 169.89 398.001 176.569 413.768C183.14 429.289 185.907 449.074 188.954 470.223C194.633 511.515 200.6 554.167 236.584 568.706L236.758 568.776C354.475 615.719 503.576 547.971 549.461 426.691C576.22 356.186 544.695 323.947 501.185 279.403ZM237.368 567.158L237.193 567.087C202.253 552.97 196.326 510.745 190.619 470.062C187.74 448.987 184.939 428.771 178.194 413.18C171.34 397.342 158.479 379.911 144.78 361.511C117.792 324.678 87.1308 283.246 101.305 245.617C116.903 204.208 165.536 197.93 208.529 192.273C226.841 189.922 244.075 187.76 258.074 183.04C276.32 177.136 294.838 162.007 314.7 145.968C346.194 120.316 378.964 93.9346 411.05 106.071C411.394 106.21 411.569 106.281 411.918 106.422C438.343 117.099 444.478 151.319 449.35 178.799C450.293 183.748 451.057 188.619 452.029 192.955C459.384 227.662 471.68 251.923 493.347 274.163C495.546 276.296 497.683 278.607 499.707 280.67C542.832 324.648 574.071 356.562 547.724 425.989C502.111 546.546 354.216 613.75 237.368 567.158Z" fill="#FF7F00"/>
</g>
<path d="M528.376 416.724C546.126 362.7 514.211 325.116 480.343 285.295L476.212 280.308C464.139 266.096 454.401 245.15 445.052 224.778C430.939 194.179 416.227 162.515 392.47 151.671C365.826 139.452 330.001 156.922 298.181 172.28C282.99 179.628 268.534 186.647 256.015 190.094C244.161 193.394 231.18 195.41 217.612 197.397C177.677 203.455 136.247 209.743 119.232 251.204C104.112 287.618 130.803 326.826 154.408 361.464C165.003 376.943 174.864 391.714 180.59 405.231C186.245 418.923 189.813 435.511 193.458 452.953C201.501 491.679 209.732 531.511 244.192 545.851C244.711 546.061 245.235 546.273 245.754 546.483C296.517 566.993 358.44 563.178 415.843 535.754C470.931 509.681 512.152 466.177 528.376 416.724ZM414.857 534.11C357.768 561.25 296.428 565.093 246.189 544.794C245.67 544.584 245.146 544.372 244.626 544.163C211.04 530.176 203.02 490.839 195.116 452.795C191.54 435.173 188.044 418.405 182.21 404.641C176.489 391.125 166.453 376.284 155.927 360.624C132.773 326.377 106.363 287.491 121.075 252.158C137.926 211.666 178.696 205.529 218.046 199.437C231.855 197.344 244.831 195.326 256.691 192.024C269.446 188.469 283.91 181.447 299.093 174.102C329.712 159.294 364.499 142.442 390.23 152.839C390.749 153.049 391.268 153.258 391.792 153.47C415.025 164.102 429.459 195.451 443.467 225.794C452.817 246.166 462.554 267.112 474.903 281.644L479.035 286.631C512.455 326.068 544.152 363.147 526.814 416.093C510.551 465.113 469.703 508.149 414.857 534.11Z" fill="#FF7F00"/>
<path d="M462.133 287.896L459.473 284.331C452.468 275.277 445.764 264.89 438.432 254.048C419.556 225.467 400.01 195.995 376.359 185.403C349.405 173.476 309.568 183.517 274.402 192.335C267.586 193.941 261.121 195.684 255.208 197.029C247.739 198.782 239.988 200.213 231.819 201.684C194.624 208.438 152.313 216.026 137.901 254.804C125.259 288.901 146.564 325.933 165.303 358.604C172.651 371.527 179.68 383.706 184.732 395.289C189.226 406.23 193.035 418.974 196.754 432.508C206.465 467.34 217.6 506.898 249.76 519.892C249.935 519.962 250.284 520.103 250.459 520.174C298.535 538.765 361.97 533.071 416.04 504.925C462.339 480.901 495.268 444.005 506.681 403.598C518.144 360.936 488.479 322.188 462.133 287.896ZM414.879 503.211C361.362 530.961 298.451 536.867 250.789 518.229C250.615 518.158 250.44 518.088 250.095 517.948C218.804 505.305 207.877 466.248 198.204 431.849C194.311 418.244 190.744 405.391 186.075 394.379C181.092 382.615 174.061 370.44 166.715 357.513C147.204 323.702 127.165 288.635 139.469 255.438C153.536 217.556 195.192 210.121 231.975 203.408C240.138 201.936 248.066 200.57 255.535 198.817C261.689 197.366 268.088 195.8 274.728 194.129C307.264 185.909 347.518 175.828 373.943 186.505C374.462 186.715 374.986 186.927 375.505 187.136C398.636 197.519 418.071 226.737 436.845 255.068C444.109 266.092 451.056 276.368 457.995 285.599L460.655 289.163C486.718 323.138 516.109 361.561 504.458 403.117C493.25 442.981 460.7 479.405 414.879 503.211Z" fill="#FF7F00"/>
<path d="M443.193 285.015C412.735 243.04 385.389 217.266 362.268 207.925C332.646 196.164 245.021 197.476 192.866 221.624C172.981 230.809 160.185 242.442 155.205 256.197C142.874 290.002 160.804 325.873 176.76 357.426C181.341 366.532 185.711 375.147 189.14 383.586C192.638 391.843 195.587 400.503 198.921 409.731C210.522 442.217 223.504 478.995 255.183 492.212C255.528 492.351 255.877 492.492 256.401 492.704C297.771 509.419 353.624 504.187 402.171 478.992C444.542 456.907 474.141 424.057 483.067 388.666C492.328 352.369 463.976 313.324 443.193 285.015ZM401.321 476.987C353.26 501.962 297.999 507.224 257.149 490.719C256.8 490.578 256.45 490.436 255.931 490.227C225.123 477.368 212.811 442.522 200.786 409.037C197.455 399.805 194.331 391.073 190.833 382.816C187.229 374.308 182.858 365.697 178.278 356.586C162.602 325.361 144.95 289.805 156.943 256.899C161.72 243.682 174.136 232.521 193.604 223.375C244.314 199.888 332.836 198.314 361.591 209.724C361.765 209.794 361.765 209.794 361.935 209.863C384.711 219.066 411.638 244.884 441.884 286.35C462.322 314.526 490.29 353 481.431 388.214C472.432 422.746 443.314 455.374 401.321 476.987Z" fill="#FF7F00"/>
<path d="M423.851 284.252C400.39 255.064 370.274 229.207 350.628 221.269C323.165 210.173 251.291 201.046 205.965 221.937C188.98 229.804 177.673 241.211 172.247 255.613C159.914 289.424 175.841 325.314 189.718 357.057C191.695 361.382 193.497 365.636 195.3 369.891C196.998 373.901 198.519 377.833 200.215 381.836C213.16 413.411 227.796 448.988 259.65 462.275C259.995 462.414 260.169 462.485 260.519 462.626C298.065 477.796 346.127 473.568 388.979 451.26C425.658 432.058 451.232 402.977 459.258 371.577C464.768 350.568 451.716 318.741 423.851 284.252ZM388.241 449.509C346.353 471.378 297.874 475.646 261.371 460.897C261.196 460.827 260.847 460.686 260.672 460.615C229.449 447.791 214.916 412.459 202.257 381.208C200.557 377.203 198.929 373.019 197.34 369.268C195.538 365.013 193.738 360.754 191.761 356.429C177.917 325.116 162.341 289.362 174.334 256.456C179.387 242.523 190.383 231.408 207.057 223.831C251.414 203.377 323.875 212.533 350.3 223.21C389.588 239.084 469.276 325.836 457.797 371.196C449.806 401.984 424.435 430.527 388.241 449.509Z" fill="#FF7F00"/>
<path d="M341.541 228.385C341.366 228.314 341.022 228.175 340.847 228.105C317.243 218.979 256.251 205.956 217.56 224.132C203.476 230.682 193.991 240.96 189.147 254.353C180.613 278.078 185.188 316.439 201.132 354.408C217.461 392.955 240.986 421.956 264.145 431.73C264.49 431.869 265.014 432.081 265.533 432.291C297.518 445.214 337.728 442.168 373.165 424.125C405.155 407.798 427.842 382.12 435.478 353.88C447.538 307.511 376.307 242.432 341.541 228.385ZM372.078 422.232C337.119 440.058 297.502 443.135 266.036 430.421C265.691 430.282 265.167 430.07 264.823 429.931C242.532 420.508 218.659 391.361 202.825 353.639C187.096 316.167 182.312 278.347 190.715 254.986C195.356 242.131 204.631 232.393 218.123 225.813C233.003 218.756 251.314 216.405 269.613 216.746C256.859 216.572 244.364 218.367 233.14 223.172C219.677 229.139 210.402 238.877 205.49 252.45C196.713 276.285 200.012 310.599 214.13 342.237C226.701 370.546 245.722 391.306 266.407 399.663C266.931 399.875 267.625 400.155 268.144 400.365C297.345 411.122 332.146 408.588 361.059 393.514C385.904 380.733 403.512 360.049 410.965 335.47C424.993 288.657 363.918 244.479 332.165 230.404C319.719 225.167 297.139 218.117 273.911 217.029C300.742 218.125 326.539 224.605 339.995 229.833C358.661 237.167 385.134 257.822 404.376 280.118C418.196 296.072 440.455 326.848 433.323 353.218C426.067 380.986 403.582 406.126 372.078 422.232ZM233.816 225.101C264.302 211.699 306.911 222.482 327.945 230.981C329.163 231.473 330.206 231.894 331.419 232.384C345.996 238.894 369.294 253.078 387.223 271.943C401.382 286.997 416.68 310.19 409.334 335.02C402.081 359.054 384.852 379.266 360.422 392.012C331.818 406.8 297.606 409.362 268.93 398.813C247.975 391.174 228.777 370.349 215.93 341.719C202.02 310.582 198.761 276.696 207.334 253.403C212.043 240.368 221.007 230.921 233.816 225.101ZM270.724 216.986C271.484 217.091 272.319 217.011 272.907 217.04C272.145 216.941 271.484 217.091 270.724 216.986Z" fill="#FF7F00"/>
<path d="M271.879 369.716C272.054 369.786 272.228 369.857 272.403 369.928C295.066 378.882 321.185 377.606 343.824 366.424C364.702 356.192 380.018 338.936 386.774 317.81C392.415 300.177 387.058 281.418 371.254 263.829C359.362 250.727 341.936 238.498 324.447 231.229C301.045 221.565 268.176 214.712 245.459 225.034C234.343 230.085 226.411 238.912 221.974 251.224C206.662 293.999 231.722 353.491 271.879 369.716ZM246.308 227.039C267.881 217.082 299.43 223.194 322.202 232.395C322.726 232.606 323.245 232.816 323.769 233.028C353.881 245.611 397.128 279.679 385.036 317.108C378.483 337.696 363.546 354.48 342.973 364.424C320.645 375.315 295.12 376.616 272.974 367.877C272.799 367.806 272.625 367.736 272.45 367.665C233.337 351.862 208.636 293.552 223.778 251.75C228.118 240.227 235.673 231.867 246.308 227.039Z" fill="#FF7F00"/>
<path d="M276.97 340.246C277.145 340.316 277.319 340.387 277.494 340.457C293.137 346.778 311.843 346.038 328.415 338.213C344.914 330.566 357.448 316.957 363.072 300.973C368.079 286.61 364.907 271.64 353.462 257.885C344.816 247.339 331.399 237.767 317.662 232.216C317.662 232.216 317.662 232.216 317.492 232.148C300.282 225.194 275.266 221.936 257.803 230.022C248.79 234.266 242.371 241.215 239.015 250.646C227.678 283.4 246.27 327.633 276.97 340.246ZM258.647 232.025C275.632 224.157 300.053 227.389 316.915 234.201C316.915 234.201 316.915 234.201 317.089 234.272C340.035 243.543 372.271 269.636 361.436 300.52C355.954 316.145 343.619 329.209 327.779 336.711C311.275 344.355 292.987 345.055 277.756 338.693C248.685 326.536 230.136 282.737 240.967 251.846C244.013 242.706 250.054 236.225 258.647 232.025Z" fill="#FF7F00"/>
<path d="M281.762 312.102C281.937 312.173 282.112 312.243 282.286 312.314C305.475 321.475 331.397 309.546 340.045 286.07C343.978 275.627 342.193 264.947 335.39 255.354C329.744 247.474 320.92 240.591 310.837 236.517C300.473 232.121 285.065 229.422 272.674 235.202C265.186 238.604 259.755 244.504 256.878 252.675C252.712 264.269 252.992 276.825 257.761 288.091C262.254 299.032 270.811 307.677 281.762 312.102ZM273.31 236.704C284.911 231.432 299.451 233.781 309.359 237.784C309.534 237.855 309.879 237.994 310.053 238.065C337.21 249.454 343.69 270.531 338.196 285.114C329.892 307.693 305.003 319.003 282.858 310.263C272.189 306.156 263.902 297.834 259.415 286.889C254.921 275.948 254.619 264.003 258.582 252.947C261.254 245.318 266.302 239.888 273.31 236.704Z" fill="#FF7F00"/>
<path d="M288.032 286.42L288.206 286.49C293.942 288.808 300.455 288.539 306.082 285.832C311.465 283.236 315.586 278.677 317.755 272.918C321.921 261.324 316.429 250.391 303.736 245.263C291.116 239.955 279.921 244.146 275.338 255.78C273.1 261.72 273.086 268.141 275.524 273.897C277.961 279.658 282.296 284.103 288.032 286.42ZM302.884 246.991C303.058 247.062 303.058 247.062 303.233 247.132C314.985 252.089 319.952 261.774 316.193 272.287C314.226 277.508 310.416 281.776 305.513 284.149C300.373 286.635 294.343 286.688 289.127 284.581C283.911 282.473 279.615 278.457 277.458 273.022C275.228 267.767 275.217 261.949 277.25 256.552C281.183 246.109 291.238 242.286 302.884 246.991Z" fill="#FF7F00"/>
</g>
<defs>
<clipPath id="clip0_1119_313">
<rect width="502.393" height="515.52" fill="white" transform="matrix(0.927179 0.374619 -0.352501 0.935811 182.388 0.972656)"/>
</clipPath>
</defs>
</svg>
