<svg xmlns="http://www.w3.org/2000/svg" xmlns:xlink="http://www.w3.org/1999/xlink" width="500" zoomAndPan="magnify" viewBox="0 0 375 374.999991" height="500" preserveAspectRatio="xMidYMid meet" version="1.0"><defs><g/><clipPath id="e10678b61b"><path d="M 68.066406 187.5 L 107 187.5 L 107 226.5 L 68.066406 226.5 Z M 68.066406 187.5 " clip-rule="nonzero"/></clipPath><clipPath id="0a5f40d28d"><path d="M 99 206 L 119.066406 206 L 119.066406 226.5 L 99 226.5 Z M 99 206 " clip-rule="nonzero"/></clipPath><clipPath id="3c80896a37"><path d="M 125 74.242188 L 267.28125 74.242188 L 267.28125 221.992188 L 125 221.992188 Z M 125 74.242188 " clip-rule="nonzero"/></clipPath><clipPath id="28ab82a5de"><path d="M 113 107 L 230 107 L 230 221.992188 L 113 221.992188 Z M 113 107 " clip-rule="nonzero"/></clipPath><clipPath id="b35d6dae83"><path d="M 133.777344 147 L 152 147 L 152 153 L 133.777344 153 Z M 133.777344 147 " clip-rule="nonzero"/></clipPath><clipPath id="efcf94cbb2"><path d="M 145.140625 130.6875 L 209.527344 130.6875 L 209.527344 193.6875 L 145.140625 193.6875 Z M 145.140625 130.6875 " clip-rule="nonzero"/></clipPath><clipPath id="e2cc5b6f6d"><path d="M 137.230469 156 L 161 156 L 161 161 L 137.230469 161 Z M 137.230469 156 " clip-rule="nonzero"/></clipPath><clipPath id="ffcc582f0c"><path d="M 137.230469 147 L 156 147 L 156 152 L 137.230469 152 Z M 137.230469 147 " clip-rule="nonzero"/></clipPath><clipPath id="4e1dcd79ff"><path d="M 148.542969 129.9375 L 212.664062 129.9375 L 212.664062 192.820312 L 148.542969 192.820312 Z M 148.542969 129.9375 " clip-rule="nonzero"/></clipPath></defs><g fill="#173057" fill-opacity="1"><g transform="translate(47.200892, 286.853184)"><g><path d="M 39.835938 0 L 40.757812 -15.078125 C 40.230469 -13.234375 37.464844 -5.925781 27.589844 -5.925781 L 19.882812 -5.925781 L 19.882812 -19.949219 C 24.492188 -19.554688 29.035156 -18.171875 29.957031 -14.355469 L 29.957031 -31.734375 C 29.035156 -27.917969 24.492188 -26.535156 19.882812 -26.140625 L 19.882812 -40.164062 L 26.269531 -40.164062 C 36.148438 -40.164062 38.914062 -32.855469 39.441406 -31.011719 L 38.519531 -46.089844 L 3.621094 -46.089844 C 6.980469 -45.367188 7.703125 -38.847656 7.703125 -36.082031 L 7.703125 -10.074219 C 7.703125 -7.242188 6.980469 -0.789062 3.621094 0 Z M 39.835938 0 "/></g></g></g><g fill="#173057" fill-opacity="1"><g transform="translate(91.245371, 286.853184)"><g><path d="M 3.621094 -26.074219 L 3.621094 -20.148438 L 28.3125 -20.148438 L 28.3125 -26.074219 Z M 3.621094 -26.074219 "/></g></g></g><g fill="#173057" fill-opacity="1"><g transform="translate(124.624436, 286.853184)"><g><path d="M 0.988281 -31.011719 C 1.582031 -32.855469 4.34375 -40.164062 14.15625 -40.164062 L 16.328125 -40.164062 L 16.328125 -10.074219 C 16.328125 -7.242188 15.605469 -0.789062 12.246094 0 L 32.527344 0 C 29.167969 -0.789062 28.511719 -7.242188 28.511719 -10.074219 L 28.511719 -40.164062 L 30.683594 -40.164062 C 40.492188 -40.164062 43.257812 -32.855469 43.785156 -31.011719 L 42.863281 -46.089844 L 1.976562 -46.089844 Z M 0.988281 -31.011719 "/></g></g></g><g fill="#173057" fill-opacity="1"><g transform="translate(170.841501, 286.853184)"><g><path d="M 27.851562 -17.910156 L 17.910156 -17.910156 L 22.914062 -32.988281 Z M 15.867188 0 C 12.90625 -0.722656 14.15625 -6.585938 15.144531 -9.546875 L 15.933594 -11.984375 L 29.828125 -11.984375 L 30.75 -9.285156 C 31.671875 -6.253906 32.789062 -0.722656 29.957031 0 L 50.765625 0 C 47.339844 -0.722656 44.507812 -6.519531 43.390625 -9.546875 L 30.617188 -46.089844 L 17.117188 -46.089844 C 20.082031 -45.367188 18.832031 -39.441406 17.84375 -36.476562 L 8.558594 -9.941406 C 7.570312 -7.109375 4.609375 -0.789062 0.988281 0 Z M 15.867188 0 "/></g></g></g><g fill="#173057" fill-opacity="1"><g transform="translate(224.037161, 286.853184)"><g><path d="M 27.851562 1.121094 C 33.976562 1.121094 40.757812 -0.722656 45.101562 -5.53125 L 45.101562 -13.167969 C 45.101562 -15.933594 45.828125 -22.453125 49.183594 -23.242188 L 28.90625 -23.242188 C 32.261719 -22.453125 32.921875 -15.933594 32.921875 -13.167969 L 32.921875 -6.320312 C 31.144531 -5.664062 29.300781 -5.398438 27.917969 -5.398438 C 20.410156 -5.464844 15.800781 -13.300781 15.800781 -23.042969 C 15.800781 -32.789062 20.410156 -40.691406 28.050781 -40.691406 C 35.882812 -40.691406 41.480469 -32.59375 42.269531 -29.828125 L 41.414062 -47.210938 C 40.625 -45.234375 39.503906 -44.378906 37.597656 -44.378906 C 34.699219 -44.378906 31.734375 -47.210938 25.414062 -47.210938 C 12.972656 -47.210938 2.304688 -36.410156 2.304688 -23.042969 C 2.304688 -9.746094 12.972656 1.121094 27.851562 1.121094 Z M 27.851562 1.121094 "/></g></g></g><g fill="#173057" fill-opacity="1"><g transform="translate(275.652758, 286.853184)"><g><path d="M 26.074219 1.121094 C 39.175781 1.121094 49.84375 -9.746094 49.84375 -23.042969 C 49.84375 -36.410156 39.175781 -47.210938 26.074219 -47.210938 C 12.90625 -47.210938 2.304688 -36.410156 2.304688 -23.042969 C 2.304688 -9.746094 12.90625 1.121094 26.074219 1.121094 Z M 26.074219 -40.691406 C 31.800781 -40.691406 36.410156 -32.789062 36.410156 -23.042969 C 36.410156 -13.300781 31.800781 -5.398438 26.074219 -5.398438 C 20.34375 -5.398438 15.738281 -13.300781 15.738281 -23.042969 C 15.738281 -32.789062 20.34375 -40.691406 26.074219 -40.691406 Z M 26.074219 -40.691406 "/></g></g></g><g clip-path="url(#e10678b61b)"><path fill="#173057" d="M 87.882812 197.886719 C 87.941406 198.429688 88.042969 198.960938 88.195312 199.484375 C 88.34375 200.007812 88.535156 200.511719 88.769531 201.003906 C 89.003906 201.496094 89.28125 201.960938 89.59375 202.40625 C 89.910156 202.847656 90.257812 203.261719 90.644531 203.648438 C 91.027344 204.03125 91.441406 204.382812 91.886719 204.695312 C 92.328125 205.011719 92.796875 205.285156 93.289062 205.519531 C 93.777344 205.753906 94.285156 205.949219 94.808594 206.097656 C 95.332031 206.246094 95.863281 206.351562 96.402344 206.410156 C 99.84375 206.753906 103.296875 206.910156 106.753906 206.882812 C 103.296875 206.851562 99.84375 207.011719 96.402344 207.351562 C 95.863281 207.414062 95.332031 207.515625 94.808594 207.664062 C 94.285156 207.816406 93.777344 208.007812 93.289062 208.242188 C 92.796875 208.476562 92.328125 208.753906 91.886719 209.066406 C 91.441406 209.378906 91.027344 209.730469 90.644531 210.113281 C 90.257812 210.5 89.910156 210.914062 89.59375 211.359375 C 89.28125 211.800781 89.003906 212.269531 88.769531 212.757812 C 88.535156 213.25 88.34375 213.757812 88.195312 214.277344 C 88.042969 214.800781 87.941406 215.332031 87.882812 215.875 C 87.539062 219.316406 87.382812 222.765625 87.410156 226.226562 C 87.4375 222.765625 87.28125 219.316406 86.9375 215.875 C 86.878906 215.332031 86.773438 214.800781 86.625 214.277344 C 86.476562 213.757812 86.285156 213.25 86.050781 212.757812 C 85.8125 212.269531 85.539062 211.800781 85.226562 211.355469 C 84.910156 210.914062 84.5625 210.5 84.175781 210.113281 C 83.792969 209.730469 83.378906 209.378906 82.933594 209.066406 C 82.488281 208.75 82.023438 208.476562 81.53125 208.242188 C 81.042969 208.007812 80.535156 207.816406 80.011719 207.664062 C 79.488281 207.515625 78.957031 207.410156 78.417969 207.351562 C 74.976562 207.011719 71.523438 206.851562 68.066406 206.882812 C 71.523438 206.910156 74.976562 206.753906 78.417969 206.410156 C 78.957031 206.351562 79.488281 206.246094 80.011719 206.097656 C 80.535156 205.949219 81.042969 205.753906 81.53125 205.519531 C 82.023438 205.285156 82.488281 205.011719 82.933594 204.695312 C 83.378906 204.382812 83.792969 204.03125 84.175781 203.648438 C 84.5625 203.261719 84.910156 202.847656 85.226562 202.40625 C 85.539062 201.960938 85.8125 201.496094 86.050781 201.003906 C 86.285156 200.511719 86.476562 200.007812 86.625 199.484375 C 86.773438 198.960938 86.878906 198.429688 86.9375 197.886719 C 87.28125 194.445312 87.4375 190.996094 87.410156 187.535156 C 87.382812 190.996094 87.539062 194.445312 87.882812 197.886719 Z M 87.882812 197.886719 " fill-opacity="1" fill-rule="nonzero"/></g><g clip-path="url(#0a5f40d28d)"><path fill="#173057" d="M 109.480469 212.121094 C 109.539062 212.671875 109.6875 213.195312 109.929688 213.695312 C 110.167969 214.195312 110.484375 214.640625 110.875 215.035156 C 111.269531 215.425781 111.714844 215.742188 112.214844 215.980469 C 112.714844 216.222656 113.238281 216.371094 113.789062 216.429688 C 115.53125 216.605469 117.277344 216.683594 119.027344 216.671875 C 117.277344 216.65625 115.53125 216.734375 113.789062 216.910156 C 113.238281 216.96875 112.714844 217.121094 112.214844 217.359375 C 111.714844 217.597656 111.269531 217.914062 110.875 218.304688 C 110.484375 218.699219 110.167969 219.144531 109.929688 219.644531 C 109.6875 220.144531 109.539062 220.671875 109.480469 221.222656 C 109.304688 222.964844 109.226562 224.710938 109.238281 226.460938 C 109.253906 224.710938 109.175781 222.964844 109 221.222656 C 108.941406 220.671875 108.789062 220.144531 108.550781 219.644531 C 108.3125 219.144531 107.996094 218.699219 107.605469 218.304688 C 107.210938 217.914062 106.765625 217.597656 106.265625 217.359375 C 105.765625 217.117188 105.238281 216.96875 104.6875 216.910156 C 102.945312 216.734375 101.199219 216.65625 99.449219 216.671875 C 101.199219 216.683594 102.945312 216.605469 104.6875 216.429688 C 105.238281 216.371094 105.765625 216.222656 106.265625 215.980469 C 106.765625 215.742188 107.210938 215.425781 107.605469 215.035156 C 107.996094 214.640625 108.3125 214.195312 108.550781 213.695312 C 108.789062 213.195312 108.941406 212.671875 109 212.121094 C 109.175781 210.378906 109.253906 208.632812 109.242188 206.882812 C 109.226562 208.632812 109.304688 210.378906 109.480469 212.121094 Z M 109.480469 212.121094 " fill-opacity="1" fill-rule="nonzero"/></g><path fill="#173057" d="M 102.121094 192.800781 C 102.15625 193.136719 102.25 193.460938 102.394531 193.765625 C 102.542969 194.070312 102.734375 194.34375 102.972656 194.582031 C 103.214844 194.820312 103.484375 195.011719 103.789062 195.160156 C 104.097656 195.304688 104.417969 195.398438 104.753906 195.433594 C 105.816406 195.539062 106.882812 195.589844 107.953125 195.582031 C 106.882812 195.570312 105.816406 195.621094 104.753906 195.726562 C 104.417969 195.761719 104.097656 195.855469 103.789062 196 C 103.484375 196.148438 103.210938 196.339844 102.972656 196.578125 C 102.734375 196.820312 102.542969 197.089844 102.394531 197.394531 C 102.25 197.703125 102.15625 198.023438 102.121094 198.359375 C 102.015625 199.421875 101.964844 200.488281 101.972656 201.558594 C 101.984375 200.488281 101.933594 199.421875 101.828125 198.359375 C 101.792969 198.023438 101.699219 197.703125 101.554688 197.394531 C 101.40625 197.089844 101.214844 196.820312 100.976562 196.578125 C 100.734375 196.339844 100.464844 196.148438 100.160156 196 C 99.851562 195.855469 99.53125 195.761719 99.195312 195.726562 C 98.132812 195.621094 97.066406 195.570312 95.996094 195.582031 C 97.066406 195.589844 98.132812 195.539062 99.195312 195.433594 C 99.53125 195.398438 99.851562 195.304688 100.160156 195.160156 C 100.464844 195.011719 100.734375 194.820312 100.976562 194.582031 C 101.214844 194.339844 101.40625 194.070312 101.554688 193.765625 C 101.699219 193.460938 101.789062 193.136719 101.828125 192.800781 C 101.933594 191.738281 101.984375 190.671875 101.972656 189.601562 C 101.964844 190.671875 102.015625 191.738281 102.121094 192.800781 Z M 102.121094 192.800781 " fill-opacity="1" fill-rule="nonzero"/><g clip-path="url(#3c80896a37)"><path fill="#ff7f00" d="M 237.007812 165.25 C 237.007812 134.976562 216.453125 109.496094 188.550781 102 C 183.117188 100.546875 177.414062 99.757812 171.515625 99.757812 C 165.632812 99.757812 159.910156 100.527344 154.476562 102 L 152.898438 102.449219 C 143.558594 105.210938 135.09375 110.410156 128.1875 117.277344 L 125.246094 120.203125 L 128.921875 111.71875 L 132.3125 103.667969 L 133.011719 102 L 134.714844 97.964844 L 134.839844 97.675781 L 143.773438 76.460938 C 143.773438 76.460938 146.515625 69.933594 153.277344 69.933594 C 159.464844 69.933594 170.007812 69.933594 170.007812 69.933594 C 170.007812 69.933594 184.355469 69.933594 190.558594 69.933594 C 197.320312 69.933594 200.0625 76.460938 200.0625 76.460938 L 210.804688 102.015625 L 249.183594 102.015625 C 259.261719 102.015625 267.457031 110.210938 267.457031 120.308594 L 267.457031 206.710938 C 267.457031 216.824219 259.261719 225.019531 249.148438 225.019531 L 198.324219 225.019531 C 221.136719 214.78125 237.007812 191.878906 237.007812 165.25 Z M 237.007812 165.25 " fill-opacity="1" fill-rule="nonzero"/></g><path fill="#ff7f00" d="M 239.984375 95.652344 L 221.53125 95.652344 C 218.820312 95.652344 216.617188 93.445312 216.617188 90.738281 L 216.617188 88.855469 C 216.617188 86.144531 218.820312 83.941406 221.53125 83.941406 L 239.984375 83.941406 C 242.691406 83.941406 244.894531 86.144531 244.894531 88.855469 L 244.894531 90.738281 C 244.894531 93.464844 242.691406 95.652344 239.984375 95.652344 Z M 239.984375 95.652344 " fill-opacity="1" fill-rule="nonzero"/><g clip-path="url(#28ab82a5de)"><path fill="#ff7f00" d="M 171.53125 107.703125 C 203.253906 107.703125 229.078125 133.527344 229.078125 165.25 C 229.078125 196.972656 203.253906 222.796875 171.53125 222.796875 C 139.808594 222.796875 113.984375 196.972656 113.984375 165.25 C 113.984375 133.527344 139.808594 107.703125 171.53125 107.703125 Z M 171.53125 218.761719 C 201.03125 218.761719 225.042969 194.75 225.042969 165.25 C 225.042969 135.75 201.03125 111.738281 171.53125 111.738281 C 142.03125 111.738281 118.019531 135.75 118.019531 165.25 C 118.019531 194.765625 142.03125 218.761719 171.53125 218.761719 Z M 171.53125 218.761719 " fill-opacity="1" fill-rule="nonzero"/></g><path fill="#ff7f00" d="M 171.53125 119.429688 L 176.035156 119.554688 C 177.523438 119.71875 179.011719 119.933594 180.515625 120.128906 C 181.988281 120.417969 183.441406 120.828125 184.910156 121.167969 C 186.34375 121.601562 187.761719 122.15625 189.195312 122.640625 C 194.808594 124.882812 199.921875 128.324219 204.222656 132.574219 C 208.472656 136.878906 211.898438 141.988281 214.160156 147.601562 C 214.644531 149.039062 215.199219 150.4375 215.628906 151.890625 C 215.96875 153.359375 216.382812 154.8125 216.667969 156.28125 C 216.867188 157.769531 217.082031 159.257812 217.242188 160.765625 L 217.371094 165.265625 C 217.191406 159.277344 215.933594 153.324219 213.585938 147.855469 C 211.253906 142.382812 207.882812 137.34375 203.648438 133.148438 C 199.472656 128.917969 194.433594 125.5625 188.945312 123.214844 C 183.476562 120.863281 177.523438 119.609375 171.53125 119.429688 Z M 171.53125 119.429688 " fill-opacity="1" fill-rule="nonzero"/><path fill="#ff7f00" d="M 131.148438 141.882812 C 129.265625 146.957031 128.242188 152.445312 128.242188 158.148438 C 128.242188 184.5625 150.191406 205.992188 177.269531 205.992188 C 185.285156 205.992188 192.855469 204.109375 199.542969 200.792969 C 191.742188 206.871094 181.953125 210.476562 171.300781 210.476562 C 145.871094 210.476562 125.265625 189.851562 125.265625 164.441406 C 125.265625 156.246094 127.398438 148.554688 131.148438 141.882812 Z M 131.148438 141.882812 " fill-opacity="1" fill-rule="nonzero"/><path fill="#000000" d="M 149.671875 166.265625 L 138.699219 166.265625 C 137.5625 166.265625 136.644531 167.171875 136.644531 168.304688 C 136.644531 169.4375 137.5625 170.347656 138.699219 170.347656 L 149.671875 170.347656 C 150.804688 170.347656 151.726562 169.4375 151.726562 168.304688 C 151.726562 167.171875 150.804688 166.265625 149.671875 166.265625 " fill-opacity="1" fill-rule="nonzero"/><path fill="#000000" d="M 154.796875 157.195312 L 136.347656 157.195312 C 135.210938 157.195312 134.292969 158.105469 134.292969 159.238281 C 134.292969 160.371094 135.210938 161.277344 136.347656 161.277344 L 154.796875 161.277344 C 155.933594 161.277344 156.851562 160.371094 156.851562 159.238281 C 156.851562 158.105469 155.933594 157.195312 154.796875 157.195312 " fill-opacity="1" fill-rule="nonzero"/><g clip-path="url(#b35d6dae83)"><path fill="#000000" d="M 135.835938 152.207031 L 149.671875 152.207031 C 150.804688 152.207031 151.726562 151.226562 151.726562 150.09375 C 151.726562 148.960938 150.804688 147.976562 149.671875 147.976562 L 135.835938 147.976562 C 134.699219 147.976562 133.777344 148.960938 133.777344 150.09375 C 133.777344 151.226562 134.699219 152.207031 135.835938 152.207031 " fill-opacity="1" fill-rule="nonzero"/></g><path fill="#000000" d="M 187.941406 188.488281 C 189.023438 188.488281 189.898438 187.617188 189.898438 186.535156 C 189.898438 185.457031 189.023438 184.585938 187.941406 184.585938 C 186.859375 184.585938 185.984375 185.457031 185.984375 186.535156 C 185.984375 187.617188 186.859375 188.488281 187.941406 188.488281 " fill-opacity="1" fill-rule="nonzero"/><path fill="#000000" d="M 162.367188 186.535156 C 162.367188 187.617188 163.246094 188.488281 164.324219 188.488281 C 165.40625 188.488281 166.28125 187.617188 166.28125 186.535156 C 166.28125 185.457031 165.40625 184.585938 164.324219 184.585938 C 163.246094 184.585938 162.367188 185.457031 162.367188 186.535156 " fill-opacity="1" fill-rule="nonzero"/><g clip-path="url(#efcf94cbb2)"><path fill="#000000" d="M 168.070312 186.535156 C 168.070312 188.597656 166.390625 190.273438 164.324219 190.273438 C 162.261719 190.273438 160.582031 188.597656 160.582031 186.535156 C 160.582031 184.476562 162.261719 182.800781 164.324219 182.800781 C 166.390625 182.800781 168.070312 184.476562 168.070312 186.535156 Z M 187.941406 182.800781 C 190.007812 182.800781 191.6875 184.476562 191.6875 186.535156 C 191.6875 188.597656 190.007812 190.273438 187.941406 190.273438 C 185.875 190.273438 184.195312 188.597656 184.195312 186.535156 C 184.195312 184.476562 185.875 182.800781 187.941406 182.800781 Z M 204.4375 144.347656 L 161.769531 144.347656 L 161.765625 144.28125 L 160.667969 137.753906 C 160.035156 133.992188 156.925781 131.210938 153.105469 131 L 147.5 130.691406 C 146.328125 130.625 145.316406 131.523438 145.25 132.699219 C 145.1875 133.875 146.089844 134.878906 147.265625 134.941406 L 152.871094 135.25 C 154.679688 135.347656 156.15625 136.664062 156.457031 138.445312 L 160.898438 164.832031 C 161.074219 165.871094 161.976562 166.609375 163 166.609375 C 163.117188 166.609375 163.238281 166.601562 163.359375 166.578125 C 164.519531 166.386719 165.304688 165.300781 165.109375 164.136719 L 162.488281 148.582031 L 204.4375 148.582031 C 204.789062 148.582031 204.992188 148.75 205.085938 148.867188 C 205.175781 148.988281 205.316406 149.222656 205.226562 149.558594 L 199.808594 169.644531 C 199.363281 171.304688 197.84375 172.460938 196.121094 172.460938 L 168.269531 172.460938 C 164.871094 172.460938 162.109375 175.207031 162.109375 178.597656 L 162.109375 179.742188 C 162.714844 179.515625 163.535156 179.414062 164.308594 179.414062 C 164.3125 179.414062 164.316406 179.414062 164.316406 179.414062 C 163.546875 179.414062 162.804688 179.527344 162.105469 179.753906 C 159.238281 180.691406 157.164062 183.375 157.164062 186.542969 C 157.164062 190.484375 160.375 193.6875 164.324219 193.6875 C 167.738281 193.6875 170.601562 191.289062 171.316406 188.09375 C 171.425781 187.59375 171.488281 187.074219 171.488281 186.542969 C 171.488281 186.546875 171.488281 186.511719 171.488281 186.515625 C 171.488281 187.046875 171.425781 187.578125 171.316406 188.03125 L 180.953125 188.03125 C 180.839844 187.578125 180.777344 187.046875 180.777344 186.515625 C 180.777344 186.511719 180.777344 186.527344 180.777344 186.523438 C 180.78125 187.054688 180.839844 187.582031 180.953125 188.082031 C 181.664062 191.277344 184.527344 193.679688 187.941406 193.679688 C 191.890625 193.679688 195.105469 190.476562 195.105469 186.535156 C 195.105469 182.59375 191.890625 179.390625 187.941406 179.390625 C 184.953125 179.390625 182.386719 181.203125 181.316406 183.804688 C 181.3125 183.8125 181.3125 183.796875 181.308594 183.796875 L 170.957031 183.796875 C 170.957031 183.796875 170.953125 183.8125 170.953125 183.804688 C 170.136719 181.824219 168.449219 180.300781 166.375 179.679688 C 166.367188 179.679688 166.351562 179.6875 166.351562 179.6875 L 166.351562 178.597656 C 166.351562 177.558594 167.226562 176.695312 168.269531 176.695312 L 196.121094 176.695312 C 199.773438 176.695312 202.988281 174.246094 203.933594 170.726562 L 209.351562 150.644531 C 209.765625 149.109375 209.445312 147.550781 208.476562 146.289062 C 207.503906 145.023438 206.03125 144.347656 204.4375 144.347656 " fill-opacity="1" fill-rule="nonzero"/></g><path fill="#ff7f00" d="M 153.054688 165.449219 L 142.128906 165.449219 C 140.996094 165.449219 140.082031 166.355469 140.082031 167.484375 C 140.082031 168.617188 140.996094 169.523438 142.128906 169.523438 L 153.054688 169.523438 C 154.183594 169.523438 155.101562 168.617188 155.101562 167.484375 C 155.101562 166.355469 154.183594 165.449219 153.054688 165.449219 " fill-opacity="1" fill-rule="nonzero"/><g clip-path="url(#e2cc5b6f6d)"><path fill="#ff7f00" d="M 158.160156 156.398438 L 139.789062 156.398438 C 138.65625 156.398438 137.738281 157.304688 137.738281 158.433594 C 137.738281 159.5625 138.65625 160.472656 139.789062 160.472656 L 158.160156 160.472656 C 159.289062 160.472656 160.207031 159.5625 160.207031 158.433594 C 160.207031 157.304688 159.289062 156.398438 158.160156 156.398438 " fill-opacity="1" fill-rule="nonzero"/></g><g clip-path="url(#ffcc582f0c)"><path fill="#ff7f00" d="M 139.277344 151.417969 L 153.054688 151.417969 C 154.183594 151.417969 155.101562 150.4375 155.101562 149.304688 C 155.101562 148.175781 154.183594 147.195312 153.054688 147.195312 L 139.277344 147.195312 C 138.144531 147.195312 137.230469 148.175781 137.230469 149.304688 C 137.230469 150.4375 138.144531 151.417969 139.277344 151.417969 " fill-opacity="1" fill-rule="nonzero"/></g><path fill="#ff7f00" d="M 191.164062 187.632812 C 192.242188 187.632812 193.113281 186.757812 193.113281 185.683594 C 193.113281 184.605469 192.242188 183.734375 191.164062 183.734375 C 190.089844 183.734375 189.214844 184.605469 189.214844 185.683594 C 189.214844 186.757812 190.089844 187.632812 191.164062 187.632812 " fill-opacity="1" fill-rule="nonzero"/><path fill="#ff7f00" d="M 165.699219 185.683594 C 165.699219 186.757812 166.570312 187.632812 167.648438 187.632812 C 168.722656 187.632812 169.597656 186.757812 169.597656 185.683594 C 169.597656 184.605469 168.722656 183.734375 167.648438 183.734375 C 166.570312 183.734375 165.699219 184.605469 165.699219 185.683594 " fill-opacity="1" fill-rule="nonzero"/><g clip-path="url(#4e1dcd79ff)"><path fill="#ff7f00" d="M 171.378906 185.683594 C 171.378906 187.738281 169.703125 189.414062 167.648438 189.414062 C 165.589844 189.414062 163.917969 187.738281 163.917969 185.683594 C 163.917969 183.625 165.589844 181.953125 167.648438 181.953125 C 169.703125 181.953125 171.378906 183.625 171.378906 185.683594 Z M 191.164062 181.953125 C 193.222656 181.953125 194.894531 183.625 194.894531 185.683594 C 194.894531 187.738281 193.222656 189.414062 191.164062 189.414062 C 189.109375 189.414062 187.4375 187.738281 187.4375 185.683594 C 187.4375 183.625 189.109375 181.953125 191.164062 181.953125 Z M 207.59375 143.574219 L 165.105469 143.574219 L 165.097656 143.507812 L 164.003906 136.992188 C 163.375 133.234375 160.277344 130.457031 156.476562 130.25 L 150.894531 129.941406 C 149.726562 129.875 148.71875 130.773438 148.652344 131.945312 C 148.589844 133.117188 149.488281 134.121094 150.660156 134.183594 L 156.242188 134.492188 C 158.042969 134.589844 159.511719 135.902344 159.8125 137.679688 L 164.234375 164.015625 C 164.410156 165.058594 165.308594 165.792969 166.328125 165.792969 C 166.445312 165.792969 166.566406 165.78125 166.683594 165.761719 C 167.84375 165.570312 168.625 164.484375 168.429688 163.324219 L 165.820312 147.796875 L 207.59375 147.796875 C 207.941406 147.796875 208.144531 147.964844 208.238281 148.082031 C 208.328125 148.203125 208.46875 148.4375 208.378906 148.773438 L 202.984375 168.820312 C 202.539062 170.480469 201.027344 171.636719 199.3125 171.636719 L 171.574219 171.636719 C 168.191406 171.636719 165.441406 174.375 165.441406 177.757812 L 165.441406 178.902344 C 166.042969 178.675781 166.859375 178.574219 167.632812 178.574219 C 167.632812 178.574219 167.636719 178.574219 167.640625 178.574219 C 166.871094 178.574219 166.132812 178.6875 165.4375 178.914062 C 162.582031 179.847656 160.515625 182.527344 160.515625 185.6875 C 160.515625 189.621094 163.714844 192.820312 167.648438 192.820312 C 171.046875 192.820312 173.898438 190.425781 174.609375 187.234375 C 174.71875 186.738281 174.78125 186.222656 174.78125 185.691406 C 174.78125 185.691406 174.78125 185.65625 174.78125 185.660156 C 174.78125 186.195312 174.71875 186.722656 174.609375 187.175781 L 184.203125 187.175781 C 184.09375 186.722656 184.03125 186.191406 184.03125 185.660156 C 184.03125 185.65625 184.03125 185.671875 184.03125 185.671875 C 184.035156 186.203125 184.09375 186.726562 184.203125 187.222656 C 184.914062 190.414062 187.765625 192.8125 191.164062 192.8125 C 195.097656 192.8125 198.296875 189.613281 198.296875 185.679688 C 198.296875 181.746094 195.097656 178.550781 191.164062 178.550781 C 188.1875 178.550781 185.632812 180.359375 184.566406 182.957031 C 184.5625 182.960938 184.5625 182.949219 184.558594 182.949219 L 174.253906 182.949219 C 174.25 182.949219 174.25 182.960938 174.246094 182.957031 C 173.433594 180.980469 171.753906 179.457031 169.6875 178.839844 C 169.679688 178.835938 169.664062 178.847656 169.664062 178.84375 L 169.664062 177.757812 C 169.664062 176.722656 170.535156 175.859375 171.574219 175.859375 L 199.3125 175.859375 C 202.945312 175.859375 206.148438 173.414062 207.09375 169.902344 L 212.484375 149.859375 C 212.898438 148.324219 212.582031 146.769531 211.613281 145.507812 C 210.648438 144.246094 209.179688 143.574219 207.59375 143.574219 " fill-opacity="1" fill-rule="nonzero"/></g></svg>