<svg xmlns="http://www.w3.org/2000/svg" xmlns:xlink="http://www.w3.org/1999/xlink" width="500" zoomAndPan="magnify" viewBox="0 0 375 374.999991" height="500" preserveAspectRatio="xMidYMid meet" version="1.0"><defs><clipPath id="489e270307"><path d="M 37.5 243.351562 L 96 243.351562 L 96 301.851562 L 37.5 301.851562 Z M 37.5 243.351562 " clip-rule="nonzero"/></clipPath><clipPath id="f9b2e92165"><path d="M 84 272 L 114 272 L 114 301.851562 L 84 301.851562 Z M 84 272 " clip-rule="nonzero"/></clipPath><clipPath id="b449575e58"><path d="M 123 72.960938 L 337.210938 72.960938 L 337.210938 295.246094 L 123 295.246094 Z M 123 72.960938 " clip-rule="nonzero"/></clipPath><clipPath id="1b920e635d"><path d="M 106 123 L 280 123 L 280 295.246094 L 106 295.246094 Z M 106 123 " clip-rule="nonzero"/></clipPath><clipPath id="4a1f72d0d3"><path d="M 136.363281 183 L 164 183 L 164 191 L 136.363281 191 Z M 136.363281 183 " clip-rule="nonzero"/></clipPath><clipPath id="f40b366249"><path d="M 153.386719 157.878906 L 249.851562 157.878906 L 249.851562 252.484375 L 153.386719 252.484375 Z M 153.386719 157.878906 " clip-rule="nonzero"/></clipPath><clipPath id="f8a848bba5"><path d="M 141.554688 182 L 169 182 L 169 190 L 141.554688 190 Z M 141.554688 182 " clip-rule="nonzero"/></clipPath><clipPath id="45e1f987b2"><path d="M 158.578125 156.75 L 255.042969 156.75 L 255.042969 251.355469 L 158.578125 251.355469 Z M 158.578125 156.75 " clip-rule="nonzero"/></clipPath></defs><g clip-path="url(#489e270307)"><path fill="#ffffff" d="M 67.316406 258.980469 C 67.402344 259.792969 67.5625 260.59375 67.785156 261.382812 C 68.011719 262.167969 68.300781 262.929688 68.652344 263.667969 C 69.007812 264.40625 69.421875 265.109375 69.894531 265.777344 C 70.367188 266.445312 70.890625 267.070312 71.46875 267.648438 C 72.050781 268.226562 72.671875 268.75 73.339844 269.226562 C 74.007812 269.699219 74.710938 270.109375 75.449219 270.464844 C 76.1875 270.820312 76.949219 271.109375 77.734375 271.332031 C 78.523438 271.558594 79.324219 271.714844 80.136719 271.800781 C 85.316406 272.320312 90.507812 272.554688 95.710938 272.511719 C 90.507812 272.46875 85.316406 272.707031 80.136719 273.222656 C 79.324219 273.3125 78.523438 273.46875 77.734375 273.691406 C 76.949219 273.917969 76.1875 274.207031 75.449219 274.558594 C 74.710938 274.914062 74.007812 275.328125 73.339844 275.800781 C 72.671875 276.273438 72.050781 276.800781 71.46875 277.378906 C 70.890625 277.957031 70.367188 278.578125 69.894531 279.246094 C 69.421875 279.914062 69.007812 280.617188 68.652344 281.355469 C 68.300781 282.09375 68.011719 282.855469 67.785156 283.644531 C 67.5625 284.429688 67.402344 285.230469 67.316406 286.042969 C 66.800781 291.222656 66.5625 296.414062 66.605469 301.617188 C 66.648438 296.414062 66.410156 291.222656 65.894531 286.042969 C 65.804688 285.230469 65.648438 284.429688 65.425781 283.644531 C 65.199219 282.855469 64.910156 282.09375 64.558594 281.355469 C 64.203125 280.617188 63.789062 279.914062 63.316406 279.246094 C 62.84375 278.578125 62.320312 277.957031 61.742188 277.378906 C 61.160156 276.796875 60.539062 276.273438 59.871094 275.800781 C 59.203125 275.328125 58.5 274.914062 57.761719 274.558594 C 57.023438 274.207031 56.261719 273.917969 55.476562 273.691406 C 54.6875 273.46875 53.886719 273.3125 53.074219 273.222656 C 47.894531 272.707031 42.703125 272.46875 37.5 272.511719 C 42.703125 272.554688 47.894531 272.316406 53.074219 271.800781 C 53.886719 271.714844 54.6875 271.558594 55.476562 271.332031 C 56.261719 271.109375 57.023438 270.820312 57.761719 270.464844 C 58.5 270.109375 59.203125 269.699219 59.871094 269.226562 C 60.539062 268.75 61.160156 268.226562 61.742188 267.648438 C 62.320312 267.070312 62.84375 266.445312 63.316406 265.777344 C 63.789062 265.109375 64.203125 264.40625 64.558594 263.667969 C 64.910156 262.929688 65.199219 262.167969 65.425781 261.382812 C 65.648438 260.59375 65.804688 259.792969 65.894531 258.980469 C 66.410156 253.800781 66.648438 248.609375 66.605469 243.40625 C 66.5625 248.609375 66.800781 253.800781 67.316406 258.980469 Z M 67.316406 258.980469 " fill-opacity="1" fill-rule="nonzero"/></g><g clip-path="url(#f9b2e92165)"><path fill="#ffffff" d="M 99.808594 280.394531 C 99.902344 281.222656 100.125 282.015625 100.488281 282.765625 C 100.847656 283.519531 101.324219 284.1875 101.914062 284.777344 C 102.503906 285.367188 103.175781 285.84375 103.925781 286.203125 C 104.679688 286.566406 105.46875 286.792969 106.296875 286.882812 C 108.917969 287.144531 111.546875 287.261719 114.179688 287.242188 C 111.546875 287.21875 108.917969 287.339844 106.296875 287.601562 C 105.46875 287.691406 104.679688 287.917969 103.925781 288.277344 C 103.175781 288.636719 102.503906 289.113281 101.914062 289.703125 C 101.324219 290.292969 100.847656 290.964844 100.488281 291.714844 C 100.125 292.46875 99.902344 293.257812 99.808594 294.089844 C 99.550781 296.710938 99.429688 299.335938 99.449219 301.96875 C 99.472656 299.335938 99.351562 296.707031 99.089844 294.089844 C 99 293.257812 98.777344 292.46875 98.414062 291.714844 C 98.054688 290.964844 97.578125 290.292969 96.988281 289.703125 C 96.398438 289.113281 95.726562 288.636719 94.976562 288.277344 C 94.222656 287.917969 93.433594 287.691406 92.601562 287.601562 C 89.984375 287.339844 87.355469 287.21875 84.722656 287.242188 C 87.355469 287.261719 89.984375 287.144531 92.601562 286.882812 C 93.433594 286.792969 94.222656 286.566406 94.976562 286.203125 C 95.726562 285.84375 96.398438 285.367188 96.988281 284.777344 C 97.578125 284.1875 98.054688 283.519531 98.414062 282.765625 C 98.777344 282.015625 99 281.222656 99.089844 280.394531 C 99.351562 277.773438 99.472656 275.144531 99.453125 272.511719 C 99.429688 275.144531 99.550781 277.773438 99.808594 280.394531 Z M 99.808594 280.394531 " fill-opacity="1" fill-rule="nonzero"/></g><path fill="#ffffff" d="M 88.738281 251.328125 C 88.792969 251.835938 88.933594 252.316406 89.152344 252.777344 C 89.371094 253.234375 89.664062 253.644531 90.023438 254.007812 C 90.382812 254.367188 90.792969 254.65625 91.25 254.875 C 91.710938 255.097656 92.195312 255.234375 92.699219 255.289062 C 94.300781 255.449219 95.90625 255.523438 97.511719 255.507812 C 95.90625 255.496094 94.300781 255.570312 92.699219 255.726562 C 92.195312 255.785156 91.710938 255.921875 91.25 256.140625 C 90.792969 256.363281 90.382812 256.652344 90.023438 257.011719 C 89.664062 257.371094 89.371094 257.78125 89.152344 258.242188 C 88.933594 258.699219 88.792969 259.183594 88.738281 259.691406 C 88.578125 261.289062 88.507812 262.894531 88.519531 264.5 C 88.53125 262.894531 88.460938 261.289062 88.300781 259.691406 C 88.246094 259.183594 88.105469 258.699219 87.886719 258.242188 C 87.667969 257.78125 87.375 257.371094 87.015625 257.011719 C 86.65625 256.652344 86.246094 256.363281 85.785156 256.140625 C 85.328125 255.921875 84.84375 255.785156 84.339844 255.726562 C 82.738281 255.570312 81.132812 255.496094 79.527344 255.507812 C 81.132812 255.523438 82.738281 255.449219 84.339844 255.289062 C 84.84375 255.234375 85.328125 255.097656 85.785156 254.875 C 86.246094 254.65625 86.65625 254.367188 87.015625 254.003906 C 87.375 253.644531 87.664062 253.234375 87.886719 252.777344 C 88.105469 252.316406 88.242188 251.835938 88.296875 251.328125 C 88.457031 249.726562 88.53125 248.125 88.519531 246.515625 C 88.507812 248.125 88.578125 249.726562 88.738281 251.328125 Z M 88.738281 251.328125 " fill-opacity="1" fill-rule="nonzero"/><g clip-path="url(#b449575e58)"><path fill="#ff7f00" d="M 291.667969 209.878906 C 291.667969 164.335938 260.746094 125.996094 218.765625 114.71875 C 210.59375 112.535156 202.011719 111.347656 193.136719 111.347656 C 184.285156 111.347656 175.679688 112.507812 167.503906 114.71875 L 165.132812 115.394531 C 151.074219 119.550781 138.339844 127.375 127.953125 137.707031 L 123.527344 142.105469 L 129.058594 129.34375 L 134.15625 117.230469 L 135.210938 114.71875 L 137.773438 108.648438 L 137.960938 108.21875 L 151.398438 76.300781 C 151.398438 76.300781 155.527344 66.480469 165.699219 66.480469 C 175.003906 66.480469 190.871094 66.480469 190.871094 66.480469 C 190.871094 66.480469 212.453125 66.480469 221.789062 66.480469 C 231.960938 66.480469 236.089844 76.300781 236.089844 76.300781 L 252.25 114.746094 L 309.984375 114.746094 C 325.148438 114.746094 337.476562 127.078125 337.476562 142.265625 L 337.476562 272.253906 C 337.476562 287.472656 325.148438 299.800781 309.933594 299.800781 L 233.472656 299.800781 C 267.789062 284.394531 291.667969 249.941406 291.667969 209.878906 Z M 291.667969 209.878906 " fill-opacity="1" fill-rule="nonzero"/></g><path fill="#ff7f00" d="M 296.144531 105.167969 L 268.382812 105.167969 C 264.308594 105.167969 260.992188 101.851562 260.992188 97.777344 L 260.992188 94.945312 C 260.992188 90.871094 264.308594 87.550781 268.382812 87.550781 L 296.144531 87.550781 C 300.21875 87.550781 303.539062 90.871094 303.539062 94.945312 L 303.539062 97.777344 C 303.539062 101.878906 300.21875 105.167969 296.144531 105.167969 Z M 296.144531 105.167969 " fill-opacity="1" fill-rule="nonzero"/><g clip-path="url(#1b920e635d)"><path fill="#ff7f00" d="M 193.164062 123.300781 C 240.890625 123.300781 279.742188 162.148438 279.742188 209.878906 C 279.742188 257.605469 240.890625 296.457031 193.164062 296.457031 C 145.4375 296.457031 106.585938 257.605469 106.585938 209.878906 C 106.585938 162.148438 145.4375 123.300781 193.164062 123.300781 Z M 193.164062 290.386719 C 237.546875 290.386719 273.671875 254.257812 273.671875 209.878906 C 273.671875 165.496094 237.546875 129.371094 193.164062 129.371094 C 148.78125 129.371094 112.65625 165.496094 112.65625 209.878906 C 112.65625 254.285156 148.78125 290.386719 193.164062 290.386719 Z M 193.164062 290.386719 " fill-opacity="1" fill-rule="nonzero"/></g><path fill="#ff7f00" d="M 193.164062 140.945312 L 199.933594 141.132812 C 202.175781 141.375 204.414062 141.699219 206.679688 141.996094 C 208.890625 142.429688 211.078125 143.046875 213.289062 143.5625 C 215.449219 144.207031 217.578125 145.046875 219.738281 145.773438 C 228.183594 149.144531 235.871094 154.324219 242.347656 160.71875 C 248.742188 167.195312 253.894531 174.882812 257.292969 183.328125 C 258.023438 185.488281 258.859375 187.59375 259.507812 189.777344 C 260.019531 191.988281 260.640625 194.175781 261.070312 196.386719 C 261.367188 198.625 261.691406 200.867188 261.933594 203.132812 L 262.125 209.90625 C 261.855469 200.894531 259.964844 191.9375 256.429688 183.707031 C 252.921875 175.476562 247.851562 167.898438 241.484375 161.582031 C 235.199219 155.214844 227.617188 150.171875 219.359375 146.636719 C 211.132812 143.101562 202.175781 141.214844 193.164062 140.945312 Z M 193.164062 140.945312 " fill-opacity="1" fill-rule="nonzero"/><path fill="#ff7f00" d="M 132.40625 174.722656 C 129.570312 182.359375 128.035156 190.613281 128.035156 199.195312 C 128.035156 238.933594 161.058594 271.175781 201.796875 271.175781 C 213.855469 271.175781 225.242188 268.34375 235.304688 263.351562 C 223.570312 272.496094 208.839844 277.921875 192.8125 277.921875 C 154.554688 277.921875 123.554688 246.894531 123.554688 208.664062 C 123.554688 196.332031 126.765625 184.757812 132.40625 174.722656 Z M 132.40625 174.722656 " fill-opacity="1" fill-rule="nonzero"/><path fill="#ffffff" d="M 160.171875 211.308594 L 143.734375 211.308594 C 142.035156 211.308594 140.65625 212.667969 140.65625 214.371094 C 140.65625 216.070312 142.035156 217.433594 143.734375 217.433594 L 160.171875 217.433594 C 161.875 217.433594 163.253906 216.070312 163.253906 214.371094 C 163.253906 212.667969 161.875 211.308594 160.171875 211.308594 " fill-opacity="1" fill-rule="nonzero"/><path fill="#ffffff" d="M 167.851562 197.6875 L 140.214844 197.6875 C 138.511719 197.6875 137.132812 199.050781 137.132812 200.753906 C 137.132812 202.453125 138.511719 203.816406 140.214844 203.816406 L 167.851562 203.816406 C 169.554688 203.816406 170.933594 202.453125 170.933594 200.753906 C 170.933594 199.050781 169.554688 197.6875 167.851562 197.6875 " fill-opacity="1" fill-rule="nonzero"/><g clip-path="url(#4a1f72d0d3)"><path fill="#ffffff" d="M 139.441406 190.199219 L 160.171875 190.199219 C 161.875 190.199219 163.253906 188.722656 163.253906 187.019531 C 163.253906 185.320312 161.875 183.84375 160.171875 183.84375 L 139.441406 183.84375 C 137.742188 183.84375 136.363281 185.320312 136.363281 187.019531 C 136.363281 188.722656 137.742188 190.199219 139.441406 190.199219 " fill-opacity="1" fill-rule="nonzero"/></g><path fill="#ffffff" d="M 217.511719 244.679688 C 219.128906 244.679688 220.441406 243.367188 220.441406 241.746094 C 220.441406 240.128906 219.128906 238.816406 217.511719 238.816406 C 215.890625 238.816406 214.578125 240.128906 214.578125 241.746094 C 214.578125 243.367188 215.890625 244.679688 217.511719 244.679688 " fill-opacity="1" fill-rule="nonzero"/><path fill="#ffffff" d="M 179.195312 241.746094 C 179.195312 243.367188 180.507812 244.679688 182.128906 244.679688 C 183.75 244.679688 185.0625 243.367188 185.0625 241.746094 C 185.0625 240.128906 183.75 238.816406 182.128906 238.816406 C 180.507812 238.816406 179.195312 240.128906 179.195312 241.746094 " fill-opacity="1" fill-rule="nonzero"/><g clip-path="url(#f40b366249)"><path fill="#ffffff" d="M 187.738281 241.746094 C 187.738281 244.839844 185.222656 247.359375 182.128906 247.359375 C 179.035156 247.359375 176.519531 244.839844 176.519531 241.746094 C 176.519531 238.652344 179.035156 236.136719 182.128906 236.136719 C 185.222656 236.136719 187.738281 238.652344 187.738281 241.746094 Z M 217.511719 236.136719 C 220.605469 236.136719 223.121094 238.652344 223.121094 241.746094 C 223.121094 244.839844 220.605469 247.359375 217.511719 247.359375 C 214.417969 247.359375 211.898438 244.839844 211.898438 241.746094 C 211.898438 238.652344 214.417969 236.136719 217.511719 236.136719 Z M 242.222656 178.394531 L 178.300781 178.394531 L 178.292969 178.296875 L 176.648438 168.492188 C 175.699219 162.839844 171.042969 158.664062 165.320312 158.351562 L 156.921875 157.882812 C 155.164062 157.785156 153.648438 159.136719 153.550781 160.902344 C 153.457031 162.667969 154.808594 164.175781 156.574219 164.269531 L 164.96875 164.730469 C 167.679688 164.878906 169.886719 166.851562 170.339844 169.53125 L 176.992188 209.152344 C 177.253906 210.714844 178.609375 211.824219 180.144531 211.824219 C 180.320312 211.824219 180.5 211.808594 180.679688 211.777344 C 182.421875 211.484375 183.597656 209.855469 183.304688 208.113281 L 179.378906 184.75 L 242.222656 184.75 C 242.75 184.75 243.058594 185.003906 243.195312 185.179688 C 243.332031 185.359375 243.542969 185.710938 243.40625 186.21875 L 235.289062 216.378906 C 234.621094 218.875 232.347656 220.613281 229.765625 220.613281 L 188.035156 220.613281 C 182.945312 220.613281 178.808594 224.738281 178.808594 229.824219 L 178.808594 231.546875 C 179.714844 231.203125 180.941406 231.054688 182.105469 231.054688 C 182.109375 231.054688 182.113281 231.054688 182.117188 231.054688 C 180.960938 231.054688 179.847656 231.222656 178.804688 231.566406 C 174.511719 232.96875 171.398438 237 171.398438 241.757812 C 171.398438 247.671875 176.210938 252.484375 182.128906 252.484375 C 187.246094 252.484375 191.53125 248.882812 192.601562 244.082031 C 192.769531 243.335938 192.859375 242.558594 192.859375 241.761719 C 192.859375 241.761719 192.859375 241.710938 192.859375 241.714844 C 192.859375 242.515625 192.769531 243.3125 192.601562 243.992188 L 207.039062 243.992188 C 206.871094 243.3125 206.777344 242.515625 206.777344 241.714844 C 206.777344 241.710938 206.78125 241.734375 206.78125 241.730469 C 206.78125 242.527344 206.871094 243.320312 207.039062 244.066406 C 208.105469 248.867188 212.394531 252.472656 217.511719 252.472656 C 223.425781 252.472656 228.242188 247.660156 228.242188 241.742188 C 228.242188 235.828125 223.425781 231.015625 217.511719 231.015625 C 213.03125 231.015625 209.1875 233.742188 207.582031 237.644531 C 207.578125 237.652344 207.574219 237.636719 207.574219 237.636719 L 192.066406 237.636719 C 192.0625 237.636719 192.0625 237.65625 192.058594 237.648438 C 190.835938 234.671875 188.308594 232.382812 185.199219 231.449219 C 185.1875 231.449219 185.164062 231.464844 185.164062 231.460938 L 185.164062 229.824219 C 185.164062 228.265625 186.476562 226.96875 188.035156 226.96875 L 229.765625 226.96875 C 235.234375 226.96875 240.050781 223.292969 241.472656 218.007812 L 249.585938 187.851562 C 250.207031 185.542969 249.726562 183.203125 248.273438 181.304688 C 246.820312 179.410156 244.613281 178.394531 242.222656 178.394531 " fill-opacity="1" fill-rule="nonzero"/></g><path fill="#ff7f00" d="M 165.363281 210.179688 L 148.925781 210.179688 C 147.222656 210.179688 145.847656 211.542969 145.847656 213.242188 C 145.847656 214.941406 147.222656 216.308594 148.925781 216.308594 L 165.363281 216.308594 C 167.066406 216.308594 168.445312 214.941406 168.445312 213.242188 C 168.445312 211.542969 167.066406 210.179688 165.363281 210.179688 " fill-opacity="1" fill-rule="nonzero"/><path fill="#ff7f00" d="M 173.042969 196.558594 L 145.402344 196.558594 C 143.703125 196.558594 142.324219 197.921875 142.324219 199.625 C 142.324219 201.324219 143.703125 202.6875 145.402344 202.6875 L 173.042969 202.6875 C 174.746094 202.6875 176.125 201.324219 176.125 199.625 C 176.125 197.921875 174.746094 196.558594 173.042969 196.558594 " fill-opacity="1" fill-rule="nonzero"/><g clip-path="url(#f8a848bba5)"><path fill="#ff7f00" d="M 144.632812 189.070312 L 165.363281 189.070312 C 167.066406 189.070312 168.445312 187.59375 168.445312 185.890625 C 168.445312 184.191406 167.066406 182.714844 165.363281 182.714844 L 144.632812 182.714844 C 142.933594 182.714844 141.554688 184.191406 141.554688 185.890625 C 141.554688 187.59375 142.933594 189.070312 144.632812 189.070312 " fill-opacity="1" fill-rule="nonzero"/></g><path fill="#ff7f00" d="M 222.699219 243.550781 C 224.320312 243.550781 225.632812 242.238281 225.632812 240.617188 C 225.632812 239 224.320312 237.6875 222.699219 237.6875 C 221.082031 237.6875 219.769531 239 219.769531 240.617188 C 219.769531 242.238281 221.082031 243.550781 222.699219 243.550781 " fill-opacity="1" fill-rule="nonzero"/><path fill="#ff7f00" d="M 184.386719 240.617188 C 184.386719 242.238281 185.699219 243.550781 187.320312 243.550781 C 188.9375 243.550781 190.253906 242.238281 190.253906 240.617188 C 190.253906 239 188.9375 237.6875 187.320312 237.6875 C 185.699219 237.6875 184.386719 239 184.386719 240.617188 " fill-opacity="1" fill-rule="nonzero"/><g clip-path="url(#45e1f987b2)"><path fill="#ff7f00" d="M 192.929688 240.617188 C 192.929688 243.714844 190.414062 246.230469 187.320312 246.230469 C 184.226562 246.230469 181.707031 243.714844 181.707031 240.617188 C 181.707031 237.523438 184.226562 235.007812 187.320312 235.007812 C 190.414062 235.007812 192.929688 237.523438 192.929688 240.617188 Z M 222.699219 235.007812 C 225.796875 235.007812 228.3125 237.523438 228.3125 240.617188 C 228.3125 243.714844 225.796875 246.230469 222.699219 246.230469 C 219.605469 246.230469 217.089844 243.714844 217.089844 240.617188 C 217.089844 237.523438 219.605469 235.007812 222.699219 235.007812 Z M 247.414062 177.265625 L 183.492188 177.265625 L 183.484375 177.167969 L 181.839844 167.363281 C 180.890625 161.710938 176.230469 157.535156 170.507812 157.222656 L 162.113281 156.757812 C 160.355469 156.65625 158.839844 158.007812 158.742188 159.773438 C 158.644531 161.539062 159.996094 163.046875 161.761719 163.140625 L 170.160156 163.601562 C 172.871094 163.75 175.078125 165.726562 175.527344 168.402344 L 182.183594 208.023438 C 182.445312 209.589844 183.800781 210.695312 185.335938 210.695312 C 185.511719 210.695312 185.691406 210.679688 185.871094 210.648438 C 187.613281 210.359375 188.789062 208.726562 188.496094 206.984375 L 184.566406 183.621094 L 247.414062 183.621094 C 247.9375 183.621094 248.246094 183.875 248.386719 184.050781 C 248.523438 184.230469 248.730469 184.582031 248.59375 185.089844 L 240.480469 215.25 C 239.808594 217.746094 237.539062 219.484375 234.957031 219.484375 L 193.226562 219.484375 C 188.136719 219.484375 184 223.609375 184 228.699219 L 184 230.417969 C 184.90625 230.074219 186.132812 229.925781 187.292969 229.925781 C 187.296875 229.925781 187.304688 229.925781 187.308594 229.925781 C 186.152344 229.925781 185.039062 230.09375 183.996094 230.4375 C 179.699219 231.839844 176.589844 235.871094 176.589844 240.628906 C 176.589844 246.546875 181.402344 251.355469 187.320312 251.355469 C 192.433594 251.355469 196.722656 247.753906 197.792969 242.957031 C 197.957031 242.207031 198.050781 241.429688 198.050781 240.632812 C 198.050781 240.636719 198.050781 240.582031 198.050781 240.585938 C 198.050781 241.386719 197.960938 242.183594 197.792969 242.863281 L 212.226562 242.863281 C 212.058594 242.183594 211.96875 241.386719 211.96875 240.585938 C 211.96875 240.582031 211.96875 240.605469 211.96875 240.601562 C 211.972656 241.398438 212.0625 242.191406 212.226562 242.9375 C 213.296875 247.738281 217.585938 251.34375 222.699219 251.34375 C 228.617188 251.34375 233.429688 246.53125 233.429688 240.617188 C 233.429688 234.699219 228.617188 229.886719 222.699219 229.886719 C 218.222656 229.886719 214.378906 232.613281 212.773438 236.515625 C 212.769531 236.527344 212.765625 236.507812 212.761719 236.507812 L 197.257812 236.507812 C 197.253906 236.507812 197.25 236.527344 197.25 236.519531 C 196.027344 233.542969 193.496094 231.253906 190.386719 230.324219 C 190.378906 230.320312 190.355469 230.335938 190.355469 230.332031 L 190.355469 228.699219 C 190.355469 227.136719 191.664062 225.839844 193.226562 225.839844 L 234.957031 225.839844 C 240.425781 225.839844 245.242188 222.164062 246.660156 216.878906 L 254.777344 186.722656 C 255.398438 184.414062 254.917969 182.074219 253.464844 180.179688 C 252.011719 178.28125 249.804688 177.265625 247.414062 177.265625 " fill-opacity="1" fill-rule="nonzero"/></g></svg>