<svg width="350" height="351" viewBox="0 0 350 351" fill="none" xmlns="http://www.w3.org/2000/svg">
<path d="M64.4946 200.947L65.355 186.875C64.8629 188.595 62.2853 195.417 53.0649 195.417H45.8754V182.328C50.1774 182.696 54.4175 183.987 55.278 187.553V171.329C54.4175 174.891 50.1774 176.181 45.8754 176.553V163.461H51.8363C61.053 163.461 63.6342 170.282 64.1264 172.003L63.266 157.93H30.6978C33.8332 158.608 34.5076 164.693 34.5076 167.271V191.545C34.5076 194.188 33.8332 200.211 30.6978 200.947H64.4946Z" fill="#173057"/>
<path d="M71.8035 176.612V182.142H94.8488V176.612H71.8035Z" fill="#173057"/>
<path d="M100.498 172.003C101.052 170.282 103.63 163.461 112.788 163.461H114.815V191.545C114.815 194.188 114.141 200.211 111.005 200.947H129.931C126.799 200.211 126.183 194.188 126.183 191.545V163.461H128.21C137.368 163.461 139.949 170.282 140.442 172.003L139.581 157.93H101.42L100.498 172.003Z" fill="#173057"/>
<path d="M168.704 184.231H159.425L164.095 170.162L168.704 184.231ZM157.518 200.947C154.755 200.273 155.921 194.801 156.844 192.037L157.58 189.762H170.545L171.405 192.281C172.265 195.111 173.312 200.273 170.669 200.947H190.086C186.893 200.273 184.249 194.863 183.203 192.037L171.285 157.93H158.685C161.452 158.608 160.285 164.139 159.363 166.903L150.697 191.669C149.774 194.312 147.011 200.211 143.631 200.947H157.518Z" fill="#173057"/>
<path d="M218.35 201.994C224.063 201.994 230.392 200.273 234.45 195.785V188.657C234.45 186.076 235.124 179.991 238.26 179.255H219.33C222.466 179.991 223.082 186.076 223.082 188.657V195.049C221.419 195.661 219.699 195.909 218.412 195.909C211.404 195.847 207.102 188.533 207.102 179.441C207.102 170.344 211.404 162.972 218.532 162.972C225.845 162.972 231.07 170.53 231.806 173.112L231.008 156.888C230.271 158.732 229.225 159.531 227.442 159.531C224.741 159.531 221.974 156.888 216.075 156.888C204.459 156.888 194.506 166.965 194.506 179.441C194.506 191.851 204.459 201.994 218.35 201.994Z" fill="#173057"/>
<mask id="mask0_1116_137" style="mask-type:luminance" maskUnits="userSpaceOnUse" x="203" y="118" width="37" height="37">
<path d="M203.026 118.386H239.867V154.786H203.026V118.386Z" fill="white"/>
</mask>
<g mask="url(#mask0_1116_137)">
<path d="M221.521 128.084C221.576 128.588 221.674 129.083 221.813 129.572C221.951 130.06 222.13 130.534 222.349 130.99C222.571 131.45 222.826 131.887 223.118 132.299C223.413 132.715 223.738 133.101 224.099 133.458C224.456 133.819 224.842 134.144 225.258 134.439C225.674 134.731 226.107 134.986 226.567 135.208C227.023 135.427 227.496 135.606 227.985 135.744C228.474 135.883 228.969 135.981 229.473 136.036C232.684 136.357 235.907 136.503 239.134 136.477C235.907 136.452 232.684 136.597 229.473 136.918C228.969 136.973 228.474 137.071 227.985 137.21C227.496 137.348 227.023 137.527 226.567 137.746C226.107 137.968 225.674 138.223 225.258 138.515C224.842 138.81 224.456 139.135 224.099 139.496C223.738 139.853 223.413 140.24 223.118 140.655C222.826 141.071 222.571 141.505 222.349 141.964C222.13 142.42 221.951 142.894 221.813 143.382C221.674 143.871 221.576 144.367 221.521 144.87C221.2 148.082 221.054 151.305 221.08 154.531C221.105 151.305 220.959 148.082 220.639 144.87C220.584 144.367 220.486 143.871 220.347 143.382C220.208 142.894 220.03 142.42 219.811 141.964C219.589 141.505 219.333 141.071 219.042 140.655C218.746 140.24 218.422 139.853 218.061 139.496C217.704 139.135 217.317 138.81 216.902 138.515C216.49 138.223 216.052 137.968 215.593 137.746C215.137 137.527 214.663 137.348 214.175 137.21C213.686 137.071 213.19 136.973 212.687 136.918C209.475 136.597 206.252 136.452 203.026 136.477C206.252 136.503 209.475 136.357 212.687 136.036C213.19 135.981 213.686 135.883 214.175 135.744C214.663 135.606 215.137 135.427 215.593 135.208C216.052 134.986 216.49 134.731 216.902 134.439C217.317 134.144 217.704 133.819 218.061 133.458C218.422 133.101 218.746 132.715 219.042 132.299C219.333 131.883 219.589 131.45 219.811 130.99C220.03 130.534 220.208 130.06 220.347 129.572C220.486 129.083 220.584 128.588 220.639 128.084C220.959 124.872 221.105 121.65 221.08 118.423C221.054 121.65 221.2 124.872 221.521 128.084Z" fill="#173057"/>
</g>
<mask id="mask1_1116_137" style="mask-type:luminance" maskUnits="userSpaceOnUse" x="231" y="136" width="20" height="19">
<path d="M231.467 136.477H250.625V154.786H231.467V136.477Z" fill="white"/>
</mask>
<g mask="url(#mask1_1116_137)">
<path d="M241.678 141.366C241.733 141.88 241.872 142.372 242.098 142.839C242.32 143.306 242.615 143.721 242.98 144.086C243.348 144.45 243.764 144.746 244.231 144.972C244.697 145.194 245.186 145.333 245.703 145.391C247.326 145.552 248.956 145.628 250.592 145.614C248.956 145.599 247.326 145.675 245.703 145.836C245.186 145.894 244.697 146.033 244.231 146.255C243.764 146.481 243.348 146.773 242.98 147.141C242.615 147.506 242.32 147.921 242.098 148.388C241.872 148.855 241.733 149.347 241.678 149.861C241.514 151.487 241.441 153.117 241.456 154.75C241.467 153.117 241.394 151.487 241.23 149.861C241.175 149.347 241.037 148.855 240.811 148.388C240.588 147.921 240.293 147.506 239.928 147.141C239.56 146.773 239.145 146.481 238.678 146.255C238.211 146.033 237.723 145.894 237.205 145.836C235.583 145.675 233.953 145.599 232.32 145.614C233.953 145.628 235.583 145.552 237.205 145.391C237.723 145.333 238.211 145.194 238.678 144.972C239.145 144.746 239.56 144.45 239.928 144.086C240.293 143.721 240.588 143.306 240.811 142.839C241.037 142.372 241.175 141.88 241.23 141.366C241.394 139.74 241.467 138.11 241.456 136.477C241.441 138.11 241.514 139.74 241.678 141.366Z" fill="#173057"/>
</g>
<path d="M234.81 123.338C234.843 123.651 234.93 123.95 235.065 124.234C235.204 124.519 235.382 124.774 235.605 124.996C235.831 125.219 236.082 125.401 236.367 125.536C236.655 125.674 236.954 125.758 237.267 125.795C238.259 125.893 239.254 125.937 240.253 125.93C239.254 125.922 238.259 125.966 237.267 126.065C236.954 126.101 236.655 126.185 236.367 126.323C236.082 126.458 235.831 126.637 235.605 126.863C235.382 127.085 235.204 127.341 235.065 127.625C234.93 127.909 234.843 128.208 234.81 128.522C234.711 129.517 234.664 130.509 234.675 131.508C234.682 130.509 234.635 129.517 234.536 128.522C234.504 128.208 234.416 127.909 234.281 127.625C234.143 127.341 233.964 127.085 233.742 126.863C233.519 126.637 233.264 126.458 232.98 126.323C232.695 126.185 232.393 126.101 232.079 126.065C231.088 125.966 230.092 125.922 229.093 125.93C230.092 125.937 231.088 125.893 232.079 125.795C232.393 125.758 232.695 125.674 232.98 125.536C233.264 125.401 233.516 125.219 233.742 124.996C233.964 124.774 234.143 124.519 234.281 124.234C234.416 123.95 234.504 123.651 234.536 123.338C234.635 122.342 234.682 121.347 234.675 120.352C234.664 121.347 234.711 122.342 234.81 123.338Z" fill="#173057"/>
<mask id="mask2_1116_137" style="mask-type:luminance" maskUnits="userSpaceOnUse" x="248" y="136" width="76" height="78">
<path d="M248.267 136.59H323.269V213.725H248.267V136.59Z" fill="white"/>
</mask>
<g mask="url(#mask2_1116_137)">
<path d="M307.464 184.103C307.464 168.302 296.738 154.998 282.169 151.082C279.333 150.324 276.354 149.912 273.273 149.912C270.203 149.912 267.218 150.317 264.381 151.082L263.557 151.316C258.679 152.759 254.26 155.472 250.655 159.059L249.12 160.587L251.041 156.157L252.809 151.954L253.174 151.082L254.063 148.975L254.129 148.825L258.792 137.749C258.792 137.749 260.225 134.344 263.754 134.344C266.984 134.344 272.489 134.344 272.489 134.344C272.489 134.344 279.978 134.344 283.219 134.344C286.748 134.344 288.181 137.749 288.181 137.749L293.788 151.093H313.822C319.083 151.093 323.363 155.37 323.363 160.642V205.748C323.363 211.031 319.083 215.307 313.804 215.307H287.27C299.181 209.962 307.464 198.008 307.464 184.103Z" fill="#FF7F00"/>
</g>
<path d="M309.021 147.768H299.385C297.974 147.768 296.822 146.616 296.822 145.202V144.221C296.822 142.806 297.974 141.654 299.385 141.654H309.021C310.432 141.654 311.584 142.806 311.584 144.221V145.202C311.584 146.627 310.432 147.768 309.021 147.768Z" fill="#FF7F00"/>
<mask id="mask3_1116_137" style="mask-type:luminance" maskUnits="userSpaceOnUse" x="242" y="153" width="62" height="61">
<path d="M242.667 153.277H303.333V213.725H242.667V153.277Z" fill="white"/>
</mask>
<g mask="url(#mask3_1116_137)">
<path d="M273.285 154.061C289.848 154.061 303.326 167.543 303.326 184.103C303.326 200.666 289.848 214.148 273.285 214.148C256.722 214.148 243.243 200.666 243.243 184.103C243.243 167.543 256.722 154.061 273.285 154.061ZM273.285 212.041C288.685 212.041 301.223 199.503 301.223 184.103C301.223 168.703 288.685 156.168 273.285 156.168C257.885 156.168 245.347 168.703 245.347 184.103C245.347 199.514 257.885 212.041 273.285 212.041Z" fill="#FF7F00"/>
</g>
<path d="M273.284 160.182L275.636 160.248C276.413 160.332 277.189 160.445 277.977 160.547C278.742 160.696 279.501 160.912 280.27 161.09C281.017 161.316 281.757 161.604 282.505 161.859C285.436 163.03 288.105 164.827 290.351 167.044C292.571 169.293 294.357 171.962 295.539 174.89C295.79 175.641 296.082 176.37 296.304 177.128C296.483 177.897 296.698 178.656 296.847 179.421C296.953 180.198 297.063 180.978 297.15 181.762L297.216 184.114C297.121 180.985 296.465 177.879 295.24 175.021C294.022 172.166 292.261 169.538 290.052 167.346C287.871 165.137 285.239 163.383 282.373 162.158C279.519 160.933 276.413 160.277 273.284 160.182Z" fill="#FF7F00"/>
<path d="M252.2 171.904C251.216 174.554 250.684 177.42 250.684 180.395C250.684 194.187 262.143 205.376 276.281 205.376C280.467 205.376 284.415 204.392 287.908 202.66C283.835 205.832 278.724 207.713 273.164 207.713C259.886 207.713 249.131 196.947 249.131 183.683C249.131 179.403 250.243 175.385 252.2 171.904Z" fill="#FF7F00"/>
<path d="M261.836 184.599H256.131C255.544 184.599 255.062 185.072 255.062 185.663C255.062 186.254 255.544 186.728 256.131 186.728H261.836C262.427 186.728 262.905 186.254 262.905 185.663C262.905 185.072 262.427 184.599 261.836 184.599Z" fill="#231F20"/>
<mask id="mask4_1116_137" style="mask-type:luminance" maskUnits="userSpaceOnUse" x="253" y="179" width="13" height="4">
<path d="M253.575 179.41H266V182.21H253.575V179.41Z" fill="white"/>
</mask>
<g mask="url(#mask4_1116_137)">
<path d="M264.501 179.873H254.909C254.319 179.873 253.841 180.347 253.841 180.938C253.841 181.529 254.319 181.999 254.909 181.999H264.501C265.092 181.999 265.57 181.529 265.57 180.938C265.57 180.347 265.092 179.873 264.501 179.873Z" fill="#231F20"/>
</g>
<mask id="mask5_1116_137" style="mask-type:luminance" maskUnits="userSpaceOnUse" x="253" y="174" width="11" height="4">
<path d="M253.575 174.744H263.2V177.544H253.575V174.744Z" fill="white"/>
</mask>
<g mask="url(#mask5_1116_137)">
<path d="M254.643 177.274H261.836C262.427 177.274 262.905 176.764 262.905 176.173C262.905 175.582 262.427 175.068 261.836 175.068H254.643C254.053 175.068 253.575 175.582 253.575 176.173C253.575 176.764 254.053 177.274 254.643 177.274Z" fill="#231F20"/>
</g>
<path d="M281.732 196.181C282.293 196.181 282.749 195.726 282.749 195.164C282.749 194.599 282.293 194.143 281.732 194.143C281.17 194.143 280.715 194.599 280.715 195.164C280.715 195.726 281.17 196.181 281.732 196.181Z" fill="#231F20"/>
<path d="M268.439 195.164C268.439 195.726 268.895 196.181 269.456 196.181C270.018 196.181 270.473 195.726 270.473 195.164C270.473 194.599 270.018 194.143 269.456 194.143C268.895 194.143 268.439 194.599 268.439 195.164Z" fill="#231F20"/>
<mask id="mask6_1116_137" style="mask-type:luminance" maskUnits="userSpaceOnUse" x="259" y="166" width="34" height="33">
<path d="M259.481 166.059H292.957V198.887H259.481V166.059Z" fill="white"/>
</mask>
<g mask="url(#mask6_1116_137)">
<path d="M271.403 195.164C271.403 196.236 270.528 197.111 269.456 197.111C268.381 197.111 267.509 196.236 267.509 195.164C267.509 194.089 268.381 193.214 269.456 193.214C270.528 193.214 271.403 194.089 271.403 195.164ZM281.732 193.214C282.807 193.214 283.679 194.089 283.679 195.164C283.679 196.236 282.807 197.111 281.732 197.111C280.66 197.111 279.785 196.236 279.785 195.164C279.785 194.089 280.66 193.214 281.732 193.214ZM290.31 173.18H268.129L268.125 173.143L267.553 169.742C267.225 167.78 265.606 166.333 263.623 166.224L260.71 166.063C260.097 166.027 259.572 166.497 259.539 167.109C259.507 167.722 259.973 168.243 260.586 168.276L263.499 168.437C264.443 168.488 265.209 169.173 265.366 170.103L267.673 183.851C267.764 184.394 268.235 184.777 268.767 184.777C268.829 184.777 268.891 184.774 268.953 184.763C269.558 184.661 269.967 184.095 269.864 183.49L268.501 175.386H290.31C290.493 175.386 290.598 175.473 290.646 175.535C290.693 175.597 290.766 175.717 290.719 175.892L287.904 186.359C287.671 187.227 286.883 187.829 285.986 187.829H271.505C269.741 187.829 268.304 189.258 268.304 191.026V191.624C268.618 191.504 269.044 191.453 269.445 191.453C269.449 191.453 269.449 191.453 269.452 191.453C269.051 191.453 268.665 191.511 268.3 191.628C266.813 192.116 265.73 193.516 265.73 195.164C265.73 197.22 267.404 198.887 269.456 198.887C271.232 198.887 272.719 197.64 273.091 195.974C273.146 195.715 273.179 195.445 273.179 195.168V195.15C273.179 195.43 273.146 195.704 273.091 195.941H278.1C278.042 195.704 278.009 195.43 278.009 195.15V195.157C278.009 195.434 278.042 195.707 278.1 195.966C278.469 197.632 279.956 198.883 281.732 198.883C283.788 198.883 285.458 197.213 285.458 195.161C285.458 193.108 283.788 191.438 281.732 191.438C280.179 191.438 278.844 192.382 278.286 193.739C278.286 193.742 278.286 193.735 278.286 193.735H272.905C272.901 193.735 272.901 193.742 272.901 193.739C272.475 192.707 271.6 191.912 270.521 191.591C270.517 191.588 270.51 191.595 270.51 191.591V191.026C270.51 190.483 270.962 190.034 271.505 190.034H285.986C287.882 190.034 289.556 188.758 290.048 186.925L292.862 176.461C293.077 175.659 292.913 174.846 292.407 174.19C291.904 173.53 291.138 173.18 290.31 173.18Z" fill="#231F20"/>
</g>
<path d="M263.637 184.208H257.932C257.345 184.208 256.864 184.682 256.864 185.273C256.864 185.86 257.345 186.334 257.932 186.334H263.637C264.228 186.334 264.706 185.86 264.706 185.273C264.706 184.682 264.228 184.208 263.637 184.208Z" fill="#FF7F00"/>
<mask id="mask7_1116_137" style="mask-type:luminance" maskUnits="userSpaceOnUse" x="255" y="179" width="13" height="4">
<path d="M255.376 179.41H267.867V182.21H255.376V179.41Z" fill="white"/>
</mask>
<g mask="url(#mask7_1116_137)">
<path d="M266.303 179.483H256.71C256.12 179.483 255.642 179.954 255.642 180.544C255.642 181.135 256.12 181.609 256.71 181.609H266.303C266.893 181.609 267.371 181.135 267.371 180.544C267.371 179.954 266.893 179.483 266.303 179.483Z" fill="#FF7F00"/>
</g>
<mask id="mask8_1116_137" style="mask-type:luminance" maskUnits="userSpaceOnUse" x="255" y="173" width="11" height="5">
<path d="M255.376 173.81H265.067V177.544H255.376V173.81Z" fill="white"/>
</mask>
<g mask="url(#mask8_1116_137)">
<path d="M256.444 176.884H263.637C264.228 176.884 264.706 176.37 264.706 175.779C264.706 175.189 264.228 174.678 263.637 174.678H256.444C255.854 174.678 255.376 175.189 255.376 175.779C255.376 176.37 255.854 176.884 256.444 176.884Z" fill="#FF7F00"/>
</g>
<path d="M283.533 195.788C284.094 195.788 284.55 195.332 284.55 194.77C284.55 194.209 284.094 193.753 283.533 193.753C282.971 193.753 282.516 194.209 282.516 194.77C282.516 195.332 282.971 195.788 283.533 195.788Z" fill="#FF7F00"/>
<path d="M270.24 194.77C270.24 195.332 270.696 195.788 271.257 195.788C271.819 195.788 272.275 195.332 272.275 194.77C272.275 194.209 271.819 193.753 271.257 193.753C270.696 193.753 270.24 194.209 270.24 194.77Z" fill="#FF7F00"/>
<mask id="mask9_1116_137" style="mask-type:luminance" maskUnits="userSpaceOnUse" x="261" y="165" width="34" height="34">
<path d="M261.333 165.669H294.758V198.496H261.333V165.669Z" fill="white"/>
</mask>
<g mask="url(#mask9_1116_137)">
<path d="M273.204 194.77C273.204 195.846 272.329 196.717 271.257 196.717C270.182 196.717 269.31 195.846 269.31 194.77C269.31 193.699 270.182 192.824 271.257 192.824C272.329 192.824 273.204 193.699 273.204 194.77ZM283.533 192.824C284.608 192.824 285.48 193.699 285.48 194.77C285.48 195.846 284.608 196.717 283.533 196.717C282.461 196.717 281.586 195.846 281.586 194.77C281.586 193.699 282.461 192.824 283.533 192.824ZM292.111 172.786H269.93L269.926 172.753L269.354 169.352C269.026 167.39 267.407 165.939 265.424 165.83L262.511 165.669C261.898 165.637 261.373 166.103 261.34 166.716C261.308 167.328 261.774 167.853 262.387 167.886L265.3 168.046C266.244 168.097 267.01 168.783 267.167 169.713L269.474 183.461C269.565 184.004 270.036 184.387 270.568 184.387C270.63 184.387 270.692 184.383 270.754 184.372C271.359 184.27 271.768 183.705 271.665 183.1L270.302 174.992H292.111C292.294 174.992 292.399 175.079 292.447 175.141C292.494 175.203 292.567 175.327 292.52 175.502L289.705 185.969C289.472 186.833 288.684 187.439 287.787 187.439H273.306C271.542 187.439 270.105 188.868 270.105 190.632V191.23C270.419 191.114 270.845 191.059 271.246 191.059C271.25 191.059 271.25 191.059 271.254 191.059C270.852 191.059 270.466 191.117 270.101 191.238C268.614 191.722 267.531 193.122 267.531 194.774C267.531 196.827 269.205 198.496 271.257 198.496C273.033 198.496 274.52 197.246 274.892 195.583C274.947 195.321 274.98 195.051 274.98 194.774C274.98 194.778 274.98 194.759 274.98 194.759C274.98 195.037 274.947 195.314 274.892 195.551H279.901C279.843 195.314 279.81 195.037 279.81 194.759C279.81 194.759 279.81 194.767 279.81 194.763C279.81 195.04 279.843 195.317 279.901 195.576C280.27 197.242 281.757 198.493 283.533 198.493C285.589 198.493 287.259 196.823 287.259 194.77C287.259 192.718 285.589 191.048 283.533 191.048C281.98 191.048 280.645 191.992 280.087 193.349C280.087 193.352 280.087 193.345 280.087 193.345H274.706C274.702 193.345 274.702 193.352 274.702 193.349C274.276 192.317 273.401 191.522 272.322 191.197C272.318 191.197 272.311 191.201 272.311 191.201V190.632C272.311 190.093 272.763 189.641 273.306 189.641H287.787C289.683 189.641 291.357 188.368 291.849 186.534L294.663 176.067C294.879 175.269 294.714 174.456 294.208 173.796C293.705 173.14 292.939 172.786 292.111 172.786Z" fill="#FF7F00"/>
</g>
</svg>
